<svg xmlns="http://www.w3.org/2000/svg" xml:space="preserve" viewBox="265 14 75 75">
   <path d="M313.835 57.485s8.8-.2 9.9 6.1h-4.1s-.2 2.6-.8 3.7l-5.7-3v3s-5.3-.9-5.4-5.7c-.2-4.8 6.1-4.1 6.1-4.1z"
      style="clip-rule:evenodd;fill:#eac716;fill-rule:evenodd" transform="translate(0 21)" />
   <path stroke-miterlimit="22.926"
      d="M313.835 57.485s8.8-.2 9.9 6.1h-4.1s-.2 2.6-.8 3.7l-5.7-3v3s-5.3-.9-5.4-5.7c-.2-4.8 6.1-4.1 6.1-4.1z"
      style="fill:none;stroke:#000003;stroke-width:.0649;stroke-miterlimit:22.92560005" transform="translate(0 21)" />
   <path d="M287.135 57.485s-10.2-.2-11.5 6.1h4.8s.2 2.6.9 3.7l6.7-3v3s6.1-.9 6.3-5.7c.2-4.8-7.2-4.1-7.2-4.1z"
      style="clip-rule:evenodd;fill:#eac716;fill-rule:evenodd" transform="translate(0 21)" />
   <path stroke-miterlimit="22.926"
      d="M287.135 57.485s-10.2-.2-11.5 6.1h4.8s.2 2.6.9 3.7l6.7-3v3s6.1-.9 6.3-5.7c.2-4.8-7.2-4.1-7.2-4.1z"
      style="fill:none;stroke:#000003;stroke-width:.0649;stroke-miterlimit:22.92560005" transform="translate(0 21)" />
   <path
      d="M300.235-6.815c-1.9 0-17.4.7-22 16.9-2.1 7.4-2.4 9.1-2.4 9.9v1.3c-7.2 5.4-9.9 12.9-6.7 22.9 0 0 3.2-9.5 5.7-9.5 0 0-3 28.1 27.1 27.6 29.2 0 27.7-27.6 27.7-27.6 2.9 0 6.5 9.9 6.5 9.9 5.6-15-5.3-20.6-7.6-24.5 0 0 0-.1-.1-.1.1-.4-.4-2.6-2.9-9.9-5.9-17.3-25.1-16.9-25.1-16.9h-.2z"
      style="clip-rule:evenodd;fill:#000002;fill-rule:evenodd" transform="translate(0 21)" />
   <path d="M324.535 31.985s8.5-1 11.6 9.5c0 0 4.7-8.7-9.3-20.5 0 0-1.3-28.4-29.1-27v55.7s24.1 5.6 26.8-17.7z"
      style="clip-rule:evenodd;fill:#1d333f;fill-rule:evenodd" transform="translate(0 21)" />
   <path d="M279.035 31.985s-7.2-1-9.8 9.5c0 0-4.4-10.5 7.8-19.3 0 0 1.1-29.6 24.5-28.1v55.7c.1-.1-20.3 5.5-22.5-17.8z"
      style="clip-rule:evenodd;fill:#1d333f;fill-rule:evenodd" transform="translate(0 21)" />
   <path
      d="M288.035 24.385s22.6-.7 26.8 0c0 0 6.7 4.2 6.7 17.1 0 6.2-4.2 17.6-21.1 17.6 0 0-18.1-.9-18.1-17.6-.1 0-1.7-10.1 5.7-17.1"
      style="clip-rule:evenodd;fill:#e0e6e9;fill-rule:evenodd" transform="translate(0 21)" />
   <path
      d="M288.035 24.385s20.8-1 25.1-.3c0 0 8.2 2.9 8.2 14.1 0 3.6-3.6 14.3-19.7 14.3 0 0-19.5.2-19.5-14.3 0 0-.4-8.6 5.9-13.8z"
      style="clip-rule:evenodd;fill:#fff;fill-rule:evenodd" transform="translate(0 21)" />
   <path d="M294.735 23.585s7.1-3.1 14.2 0c0 0-5.6 7.4-7.1 7.4-.9 0-4.9-3-7.1-7.4"
      style="clip-rule:evenodd;fill:#9ba4ae;fill-rule:evenodd" transform="translate(0 21)" />
   <path d="M293.235 23.585s7.1-3.1 14.2 0c0 0-5.6 7.4-7.1 7.4-.9 0-4.9-3-7.1-7.4"
      style="clip-rule:evenodd;fill:#000003;fill-rule:evenodd" transform="translate(0 21)" />
   <path
      d="M301.435 11.085s-9.7-4.5-14.5-4.9c-4.7-.3-10.5 11.3-3 16.7 6.3 4.5 12 1.3 17.4-.6 0 0 6.5 3.3 12.9 2.4 8.9-1.2 11.7-19.1 1.4-18.3.1 0-5.5-1.8-14.2 4.7z"
      style="clip-rule:evenodd;fill:#000002;fill-rule:evenodd" transform="translate(0 21)" />
   <path
      d="M299.935 13.985s-12.1-4.8-14-5.2c0 0-4.3 8.1 3.6 11.5 0 0 7.4 2.6 10.4-6.3zM317.235 8.685s-12.3 4.5-13.9 5.5c0 0 2.2 8.9 10.3 6.2 0-.1 7.3-3.1 3.6-11.7z"
      style="clip-rule:evenodd;fill:#fff;fill-rule:evenodd" transform="translate(0 21)" />
   <path d="M286.935 5.985s9 2.4 14.1 5c0 0 11.2-4.8 14.7-4.8 0 0-.1-11.3-15.4-11.3-.1 0-13.4 1-13.4 11.1z"
      style="clip-rule:evenodd;fill:#4d5b5c;fill-rule:evenodd" transform="translate(0 21)" />
   <path d="M293.235 22.185s7.1-3.1 14.2 0c0 0-5.6 7.4-7.1 7.4-.9 0-4.9-3-7.1-7.4z"
      style="clip-rule:evenodd;fill:#eac716;fill-rule:evenodd" transform="translate(0 21)" />
   <path stroke-miterlimit="22.926" d="M293.235 22.185s7.1-3.1 14.2 0c0 0-5.6 7.4-7.1 7.4-.9 0-4.9-3-7.1-7.4z"
      style="fill:none;stroke:#000003;stroke-width:.0649;stroke-miterlimit:22.92560005" transform="translate(0 21)" />
   <path
      d="M297.135 14.085c0 1.7-1.4 3.1-3.1 3.1-1.7 0-3.1-1.4-3.1-3.1 0-1.7 1.4-3.1 3.1-3.1 1.7 0 3.1 1.4 3.1 3.1M312.735 14.085c0 1.7-1.4 3.1-3.1 3.1-1.7 0-3.1-1.4-3.1-3.1 0-1.7 1.4-3.1 3.1-3.1 1.7 0 3.1 1.4 3.1 3.1"
      style="clip-rule:evenodd;fill:#000002;fill-rule:evenodd" transform="translate(0 21)" />
   <path
      d="M297.135 13.185c0 .6-.5 1.1-1.1 1.1-.6 0-1.1-.5-1.1-1.1 0-.6.5-1.1 1.1-1.1.6 0 1.1.5 1.1 1.1M311.635 12.085c0 .6-.5 1.1-1.1 1.1-.6 0-1.1-.5-1.1-1.1 0-.6.5-1.1 1.1-1.1.7 0 1.1.5 1.1 1.1M300.735 22.885s-3.3-.6-5 .9l3.5 3.8z"
      style="clip-rule:evenodd;fill:#fff;fill-rule:evenodd" transform="translate(0 21)" />
   <path
      d="M277.035 22.185s2.4-1.5 3.3 0c.9 1.5-10.9 9.5-11.1 19.3 0 0-.2 1.1-.5-1.7-.2-2.9-1.9-10.2 8.3-17.6zM326.835 20.985s-1.7-.3-2.8 1.1c-1 1.5 11.9 9.5 12.1 19.3 0 0 .2 1.1.5-1.7s1.3-11.3-9.8-18.7z"
      style="clip-rule:evenodd;fill:#4d5b5c;fill-rule:evenodd" transform="translate(0 21)" />
</svg>