<svg width="384" height="64" viewBox="0 0 384 64" fill="none" xmlns="http://www.w3.org/2000/svg">
<path d="M42 32H38C34.6863 32 32 29.3137 32 26V22C32 18.6863 34.6863 16 38 16H42C45.3137 16 48 13.3137 48 10V6C48 2.68629 45.3137 0 42 0H38C34.6863 0 32 2.68629 32 6V10C32 13.3137 29.3137 16 26 16H22C18.6863 16 16 18.6863 16 22V26C16 29.3137 13.3137 32 10 32H6C2.68629 32 0 34.6863 0 38V42C0 45.3137 2.68629 48 6 48H26C29.3137 48 32 50.6863 32 54V58C32 61.3137 34.6863 64 38 64H42C45.3137 64 48 61.3137 48 58V38C48 34.6863 45.3137 32 42 32Z" fill="#00A538"/>
<path d="M84.7562 47.7393H80.1489V41.8754H68.3281C65.5358 41.8754 64 40.3861 64 38.4315C64 37.4076 64.3723 36.2442 65.21 35.1272L76.9378 18.6525C78.0547 17.1167 79.1716 15.9998 81.3589 15.9998C83.3136 15.9998 84.7562 17.3494 84.7562 19.4902V37.8265H89.7824V41.8754H84.7562V47.7393ZM68.9796 37.8265H80.1489V22.1429C80.1489 21.8637 80.0558 21.631 79.7301 21.631C79.4043 21.631 79.2647 21.9102 78.9389 22.329L68.6073 37.0819C68.4677 37.268 68.4212 37.4076 68.4212 37.5472C68.4212 37.8265 68.7004 37.8265 68.9796 37.8265Z" fill="black"/>
<path d="M98.3815 58.2105H93.7742V36.2907C93.7742 29.496 99.0331 24.3767 105.921 24.3767C112.809 24.3767 118.021 29.7753 118.021 36.2907C118.021 43.1784 113.041 48.2977 106.107 48.2977C103.035 48.2977 100.243 46.9481 98.3815 44.9004V58.2105ZM105.921 43.9696C110.156 43.9696 113.414 40.4792 113.414 36.3372C113.414 32.1487 110.156 28.7514 105.921 28.7514C101.639 28.7514 98.3815 32.1487 98.3815 36.3372C98.3815 40.4792 101.639 43.9696 105.921 43.9696Z" fill="black"/>
<path d="M127.832 47.7393H123.224V34.1499C123.224 28.6118 126.389 24.4698 132.346 24.4698C133.789 24.4698 135.278 24.7491 136.441 25.3075V29.8683C135.325 29.2168 134.021 28.891 132.765 28.891C129.693 28.891 127.832 30.9853 127.832 34.3361V47.7393Z" fill="black"/>
<path d="M150.563 48.2977C143.676 48.2977 138.37 42.8992 138.37 36.2907C138.37 29.7287 143.722 24.3767 150.563 24.3767C157.451 24.3767 162.663 29.7753 162.663 36.2907C162.663 42.8992 157.405 48.2977 150.563 48.2977ZM150.563 43.9231C154.798 43.9231 158.056 40.4792 158.056 36.3372C158.056 32.1487 154.798 28.7049 150.563 28.7049C146.282 28.7049 142.978 32.1487 142.978 36.3372C142.978 40.4792 146.282 43.9231 150.563 43.9231Z" fill="black"/>
<path d="M178.094 58.769C173.161 58.769 169.065 56.6282 166.971 52.5793L170.834 50.4851C172.184 52.9516 174.697 54.5339 178.001 54.5339C182.794 54.5339 186.052 51.0901 186.052 45.7381V43.9231C184.563 46.2966 181.77 48.065 177.954 48.065C171.485 48.065 166.366 42.9458 166.366 36.2442C166.366 29.7287 171.579 24.3767 178.513 24.3767C185.401 24.3767 190.659 29.496 190.659 36.2907V45.6916C190.659 53.6032 185.354 58.769 178.094 58.769ZM178.466 43.7369C182.655 43.7369 186.006 40.3861 186.006 36.1976C186.006 32.0091 182.655 28.7514 178.466 28.7514C174.324 28.7514 170.927 32.0091 170.927 36.1976C170.927 40.3861 174.324 43.7369 178.466 43.7369Z" fill="black"/>
<path d="M201.866 47.7393H197.259V34.1499C197.259 28.6118 200.424 24.4698 206.381 24.4698C207.823 24.4698 209.313 24.7491 210.476 25.3075V29.8683C209.359 29.2168 208.056 28.891 206.8 28.891C203.728 28.891 201.866 30.9853 201.866 34.3361V47.7393Z" fill="black"/>
<path d="M223.853 48.2977C217.245 48.2977 212.405 42.8992 212.405 36.2907C212.405 29.7753 217.617 24.3767 224.552 24.3767C231.439 24.3767 236.698 29.496 236.698 36.2907V47.7393H232.323V43.7369C230.602 46.5292 227.577 48.2977 223.853 48.2977ZM224.552 43.9231C228.833 43.9231 232.091 40.4792 232.091 36.3372C232.091 32.1487 228.833 28.7049 224.552 28.7049C220.317 28.7049 217.012 32.1487 217.012 36.3372C217.012 40.4792 220.317 43.9231 224.552 43.9231Z" fill="black"/>
<path d="M333.853 48.2512C326.919 48.2512 321.753 43.225 321.753 36.1976C321.753 29.6356 326.454 24.2837 333.295 24.2837C340.183 24.2837 344.464 29.2633 344.464 35.6392V37.5007H326.221C326.733 41.41 329.711 44.1558 333.807 44.1558C336.599 44.1558 339.112 42.9458 340.462 40.4327L343.999 42.2477C341.998 46.1569 338.321 48.2512 333.853 48.2512ZM326.407 34.5222H339.857C339.671 30.8922 337.018 28.4256 333.248 28.4256C329.386 28.4256 326.873 31.1249 326.407 34.5222Z" fill="black"/>
<path d="M354.572 47.7393H349.965V34.1499C349.965 28.6118 353.13 24.4698 359.086 24.4698C360.529 24.4698 362.018 24.7491 363.182 25.3075V29.8683C362.065 29.2168 360.762 28.891 359.505 28.891C356.434 28.891 354.572 30.9853 354.572 34.3361V47.7393Z" fill="black"/>
<path d="M374.971 48.2512C370.736 48.2512 367.479 46.5758 365.71 43.1784L369.247 41.2238C370.411 43.5042 372.272 44.3419 374.785 44.3419C377.391 44.3419 379.393 43.2715 379.393 41.2704C379.393 36.4769 366.315 40.1069 366.315 31.4041C366.315 27.4018 369.852 24.4698 374.832 24.4698C379.067 24.4698 381.952 26.4245 383.395 29.0772L379.858 31.0783C378.881 29.0772 377.019 28.3791 374.925 28.3791C372.784 28.3791 370.923 29.496 370.923 31.311C370.923 35.9649 384 32.5676 384 41.1773C384 45.5054 379.811 48.2512 374.971 48.2512Z" fill="black"/>
<path d="M277.703 47.7393H282.204H282.31V36.4769C282.31 32.3349 284.218 28.7049 288.5 28.7049C292.735 28.7049 294.829 32.1953 294.829 36.3838V47.7393H299.436V36.3838C299.436 32.1953 301.531 28.7049 305.672 28.7049C309.954 28.7049 312.002 32.3349 312.002 36.4769V47.7393H316.609V35.7322C316.609 29.4029 312.886 24.2837 305.998 24.2837C301.67 24.2837 298.459 26.6106 297.202 30.1476C296.039 26.6106 292.735 24.2837 288.174 24.2837C284.457 24.2837 281.091 26.3434 279.934 30.1476C278.631 26.3003 275.34 24.2837 271.593 24.2837C267.265 24.2837 264.054 26.6106 262.798 30.1476C261.634 26.6106 258.33 24.2837 253.769 24.2837C246.928 24.2837 243.298 29.4029 243.298 35.7788V47.7393H247.905V36.4769C247.905 32.3349 249.813 28.7049 254.095 28.7049C258.33 28.7049 260.424 32.1953 260.424 36.3838V47.7393H265.031V36.3838C265.031 32.1953 267.126 28.7049 271.268 28.7049C275.549 28.7049 277.597 32.3349 277.597 36.4769V47.7393H277.703Z" fill="black"/>
</svg>
