<svg width="1040" height="715" viewBox="0 0 1040 715" fill="none" xmlns="http://www.w3.org/2000/svg">
<g clip-path="url(#clip0_1:17)">
<path d="M287.554 228.316H277.287L262.665 198.816H262.354V246.948H239.643V161.863H263.91L282.576 199.437L301.243 161.863H325.509V247.258H302.798V198.816H302.487L287.554 228.316Z" fill="#101010"/>
<path d="M394.574 161.863H418.84L448.084 247.258H424.44L419.774 231.421H393.33L388.663 247.258H365.019L394.574 161.863ZM398.93 213.411H414.796L407.018 185.463H406.707L398.93 213.411Z" fill="#101010"/>
<path d="M525.861 213.721L518.706 212.479C508.439 210.616 501.284 207.821 496.617 203.784C491.951 199.747 489.773 193.847 489.773 185.463V185.153C489.773 168.384 500.973 160 523.061 160C534.572 160 543.283 162.174 548.261 166.521C553.55 170.868 556.35 177.39 556.972 185.774H534.572C533.95 180.805 530.217 178.321 523.372 178.321C516.217 178.321 512.795 180.495 512.795 184.842V185.153C512.795 187.326 513.728 188.879 515.906 190.121C517.773 191.363 521.195 192.295 526.172 193.226L533.95 194.779C542.972 196.332 549.816 199.126 553.861 203.163C557.905 207.2 560.083 212.79 560.083 220.553V220.863C560.083 230.8 556.972 237.942 551.061 242.29C545.15 246.637 536.439 248.811 524.928 248.811C512.795 248.811 503.773 246.326 497.862 241.358C491.951 236.39 488.529 228.626 488.217 218.379H510.617C510.928 222.105 512.173 225.211 514.661 227.384C517.15 229.558 520.261 230.49 524.617 230.49C529.283 230.49 532.395 229.869 534.261 228.626C536.128 227.384 537.061 225.211 537.061 222.416V222.105C537.061 219.932 536.128 218.379 534.572 217.137C532.706 215.895 529.906 214.653 525.861 213.721Z" fill="#101010"/>
<path d="M669.593 161.863V182.047H645.949V247.258H622.616V182.047H599.283V161.863H669.593Z" fill="#101010"/>
<path d="M768.213 161.863V181.426H732.747V194.779H764.791V212.79H732.747V227.384H768.524V246.948H709.103V161.863H768.213Z" fill="#101010"/>
<path d="M831.679 219.621V246.948H808.346V161.863H842.256C854.078 161.863 862.789 164.037 867.767 168.695C872.745 173.353 875.234 180.805 875.234 191.053V191.363C875.234 204.716 869.634 213.1 858.745 216.826L878.034 246.948H853.767L836.968 219.621H831.679V219.621ZM831.368 201.921H841.634C845.679 201.921 848.478 200.99 849.723 199.126C851.278 197.263 851.901 194.779 851.901 191.053C851.901 187.326 851.278 184.842 849.723 183.29C848.167 181.737 845.367 180.805 841.323 180.805H831.057V201.921H831.368Z" fill="#101010"/>
<path d="M239.643 454.069V282.969H301.865C323.02 282.969 338.886 286.695 348.842 293.837C359.108 300.979 364.086 312.779 364.086 328.927V329.548C364.086 338.863 361.597 346.627 356.931 353.458C352.264 359.979 346.664 364.327 340.753 366.19V366.811C348.531 368.984 355.064 373.332 360.353 379.853C365.642 386.374 368.442 394.448 368.442 404.074V404.695C368.442 437.921 347.286 454.379 304.665 454.379H239.643V454.069ZM277.598 315.884V350.974H304.042C312.131 350.974 317.731 349.732 320.842 346.937C323.953 344.142 325.509 339.484 325.509 332.653V332.032C325.509 325.821 323.642 321.784 319.909 319.3C316.176 317.127 310.265 315.884 302.176 315.884H277.598V315.884ZM277.598 382.027V421.464H304.976C321.464 421.464 329.864 414.942 329.864 401.9V401.279C329.864 394.448 327.998 389.479 324.264 386.374C320.531 383.269 313.998 382.027 304.976 382.027H277.598Z" fill="#101010"/>
<path d="M470.795 457.485C420.085 457.485 394.885 427.985 394.885 368.674V368.053C394.885 309.053 420.085 279.242 470.795 279.242C521.506 279.242 546.705 308.742 546.705 368.053V368.674C546.705 427.985 521.195 457.485 470.795 457.485ZM442.174 409.664C447.773 418.669 457.107 423.016 470.795 423.016C484.484 423.016 493.817 418.669 499.417 409.664C505.017 400.658 507.506 386.995 507.506 368.674V368.053C507.506 349.732 504.706 336.069 499.417 327.063C493.817 318.058 484.484 313.711 470.795 313.711C457.107 313.711 447.773 318.369 442.174 327.063C436.574 336.069 434.085 349.732 434.085 368.053V368.674C434.085 386.995 436.574 400.658 442.174 409.664Z" fill="#101010"/>
<path d="M619.194 397.553V454.069H580.616V282.969H643.771C666.793 282.969 683.593 287.316 693.237 296.321C703.192 305.016 707.859 319.921 707.859 340.416V341.037C707.859 367.432 696.348 384.821 673.015 392.895L713.77 454.379H672.393L635.371 397.863H619.194V397.553ZM618.571 364.016H643.771C653.104 364.016 659.637 362.153 663.371 358.116C667.104 354.39 669.282 348.49 669.282 340.727V340.106C669.282 332.342 667.415 326.753 663.371 323.027C659.326 319.3 652.793 317.437 643.771 317.437H618.571V364.016Z" fill="#101010"/>
<path d="M878.345 282.969V454.069H844.124L781.28 351.906H780.658V454.069H742.703V282.969H776.925L839.768 385.132H840.39V282.969H878.345Z" fill="#101010"/>
<path d="M194.829 161.45H160V454.336H194.829V161.45Z" fill="#F7CA18"/>
</g>
<path d="M261.812 536.936L256.87 536.26C251.488 535.563 247.497 534.252 244.899 532.327C242.301 530.402 241.001 527.412 241.001 523.356V523.234C241.001 515 246.917 510.883 258.749 510.883C264.967 510.883 269.468 511.928 272.252 514.017C275.082 516.106 276.636 519.301 276.915 523.602H266.475C266.336 522.209 265.732 521.124 264.665 520.346C263.598 519.526 261.649 519.117 258.819 519.117C253.947 519.117 251.511 520.407 251.511 522.988V523.111C251.511 524.34 252.045 525.323 253.112 526.06C254.225 526.797 256.012 527.33 258.471 527.657L263.482 528.333C268.911 529.071 272.762 530.443 275.036 532.45C277.309 534.416 278.446 537.325 278.446 541.175V541.298C278.446 550.433 272.228 555 259.793 555C253.297 555 248.449 553.812 245.247 551.436C242.045 549.019 240.352 545.271 240.166 540.192H250.606C251.07 544.575 254.133 546.767 259.793 546.767C262.716 546.767 264.804 546.377 266.057 545.599C267.31 544.821 267.936 543.51 267.936 541.667V541.544C267.936 540.233 267.496 539.229 266.614 538.533C265.779 537.796 264.178 537.263 261.812 536.936Z" fill="#F7CA18"/>
<path d="M366.969 533.003C366.969 547.668 359.87 555 345.671 555C331.473 555 324.374 547.668 324.374 533.003V532.88C324.374 518.216 331.473 510.883 345.671 510.883C359.87 510.883 366.969 518.216 366.969 532.88V533.003ZM337.667 543.203C339.199 545.415 341.867 546.521 345.671 546.521C349.476 546.521 352.144 545.415 353.675 543.203C355.207 540.95 355.972 537.55 355.972 533.003V532.88C355.972 528.333 355.207 524.954 353.675 522.742C352.144 520.489 349.476 519.363 345.671 519.363C341.867 519.363 339.199 520.489 337.667 522.742C336.136 524.954 335.371 528.333 335.371 532.88V533.003C335.371 537.55 336.136 540.95 337.667 543.203Z" fill="#F7CA18"/>
<path d="M446.313 511.744V520.346H425.851V529.255H444.643V537.98H425.851V554.14H414.993V511.744H446.313Z" fill="#F7CA18"/>
<path d="M528.117 511.744V520.469H514.753V554.14H503.896V520.469H490.533V511.744H528.117Z" fill="#F7CA18"/>
<path d="M607.472 511.744L615.894 540.561H616.033L624.455 511.744H635.312L621.81 554.14H610.813L602.879 525.998H602.74L594.805 554.14H583.808L570.306 511.744H581.164L589.585 540.561H589.724L598.146 511.744H607.472Z" fill="#F7CA18"/>
<path d="M690.274 511.744H702.106L718.602 554.14H707.605L704.473 544.923H688.117L684.776 554.14H673.779L690.274 511.744ZM691.11 536.936H701.271L696.26 521.82H696.121L691.11 536.936Z" fill="#F7CA18"/>
<path d="M774.511 540.131V554.14H763.653V511.744H781.401C787.897 511.744 792.514 512.85 795.252 515.061C798.036 517.233 799.428 520.858 799.428 525.937V526.06C799.428 532.614 796.18 536.895 789.684 538.902L801.098 554.14H789.475L779.105 540.131H774.511ZM774.372 531.836H781.471C784.069 531.836 785.902 531.365 786.969 530.422C788.083 529.439 788.64 527.985 788.64 526.06V525.937C788.64 524.012 788.083 522.599 786.969 521.697C785.902 520.755 784.069 520.284 781.471 520.284H774.372V531.836Z" fill="#F7CA18"/>
<path d="M879.722 511.744V520.1H858.563V528.21H877.634V536.567H858.563V545.783H880V554.14H847.845V511.744H879.722Z" fill="#F7CA18"/>
<defs>
<clipPath id="clip0_1:17">
<rect width="718.345" height="372.632" fill="white" transform="translate(160 160)"/>
</clipPath>
</defs>
</svg>
