<?xml version="1.0" standalone="no"?>
<!DOCTYPE svg PUBLIC "-//W3C//DTD SVG 1.1//EN" "http://www.w3.org/Graphics/SVG/1.1/DTD/svg11.dtd">
<svg xmlns="http://www.w3.org/2000/svg" width="556" height="199" viewBox="0 0 556 199" fill="none">
<path d="M467 133H523C541.225 133 556 147.775 556 166C556 184.225 541.225 199 523 199H467V133Z" fill="#00FF38"/>
<path d="M0 199C0 162.549 29.5492 133 66 133H467V199H0Z" fill="black"/>
<path d="M515.496 177.822H529.398V173.748H525.366V148.422H516.378V152.496H520.242V173.748H515.496V177.822Z" fill="black"/>
<path d="M491 186.39H496.124V176.982C496.124 176.394 496.082 175.848 495.956 175.008C497.258 177.108 499.022 178.578 502.466 178.578C507.674 178.578 511.664 174.336 511.664 167.7C511.664 161.19 508.094 156.654 502.676 156.654C499.442 156.654 497.3 158.082 495.956 160.266C496.082 159.426 496.124 158.88 496.124 158.25V157.326H491V186.39ZM495.914 167.616C495.914 163.374 498.14 160.728 501.206 160.728C504.482 160.728 506.456 163.584 506.456 167.616C506.456 171.732 504.356 174.546 501.206 174.546C498.098 174.546 495.914 171.732 495.914 167.616Z" fill="black"/>
<path d="M416.898 177.822H421.728V165.6C421.728 162.702 422.904 160.728 424.92 160.728C426.81 160.728 427.608 162.408 427.608 164.928V177.822H432.396V165.6C432.396 162.744 433.488 160.728 435.63 160.728C437.436 160.728 438.276 162.408 438.276 164.928V177.822H443.106V164.088C443.106 159.636 440.67 156.654 437.016 156.654C434.244 156.654 432.354 158.376 431.388 160.392C430.674 158.166 428.826 156.654 426.642 156.654C424.08 156.654 422.484 158.25 421.602 160.266C421.686 159.72 421.728 159.006 421.728 158.46V157.326H416.898V177.822Z" fill="white"/>
<path d="M402.398 178.578C408.572 178.578 412.94 174.462 412.94 167.658C412.94 160.938 408.572 156.654 402.398 156.654C396.266 156.654 391.898 160.938 391.898 167.658C391.898 174.462 396.224 178.578 402.398 178.578ZM397.106 167.658C397.106 163.206 399.29 160.728 402.398 160.728C405.548 160.728 407.732 163.206 407.732 167.658C407.732 172.026 405.59 174.546 402.398 174.546C399.206 174.546 397.106 172.026 397.106 167.658Z" fill="white"/>
<path d="M378.374 178.578C384.464 178.578 387.824 175.218 388.538 170.01H383.33C383.078 172.446 381.608 174.546 378.5 174.546C375.35 174.546 373.208 171.69 373.208 167.616C373.208 163.164 375.644 160.728 378.626 160.728C381.524 160.728 382.952 162.744 383.12 165.054H388.328C387.824 160.266 384.59 156.654 378.626 156.654C372.662 156.654 368 160.728 368 167.574C368 174.378 371.864 178.578 378.374 178.578Z" fill="white"/>
<path d="M512.673 108.418C526.263 108.418 532.907 101.019 535.776 95.583C535.172 98.15 535.172 100.113 535.172 102.68V105.7H553.594V0H535.172V35.334C535.172 37.599 535.172 39.864 535.776 42.582C531.548 35.485 524.451 29.596 512.975 29.596C495.761 29.596 479 42.733 479 69.158C479 95.13 493.194 108.418 512.673 108.418ZM497.724 69.007C497.724 54.36 506.029 44.243 517.052 44.243C528.075 44.243 536.229 53.907 536.229 69.007C536.229 83.805 528.075 93.922 517.052 93.922C506.029 93.922 497.724 84.258 497.724 69.007Z" fill="black"/>
<path d="M418 105.643H467.226V90.996H453.032V31.955H421.02V46.602H434.61V90.996H418V105.643ZM433.251 20.932H453.485V1H433.251V20.932Z" fill="black"/>
<path d="M364.75 108.822C386.947 108.822 402.651 94.024 402.651 69.562C402.651 45.402 386.947 30 364.75 30C342.704 30 327 45.402 327 69.562C327 94.024 342.553 108.822 364.75 108.822ZM345.724 69.562C345.724 53.556 353.576 44.647 364.75 44.647C376.075 44.647 383.927 53.556 383.927 69.562C383.927 85.266 376.226 94.326 364.75 94.326C353.274 94.326 345.724 85.266 345.724 69.562Z" fill="black"/>
<path d="M267.789 106.104H286.211V71.978C286.211 54.311 297.083 47.667 311.428 47.667C314.75 47.667 317.015 47.969 318.827 48.271V30.453C316.864 30.151 315.052 30 312.334 30C298.442 30 289.986 38.305 285.607 47.516C286.06 44.496 286.211 42.231 286.211 39.513V32.416H267.789V106.104Z" fill="black"/>
<path d="M208.868 108.418C222.458 108.418 229.102 101.019 231.971 95.583C231.367 98.15 231.367 100.113 231.367 102.68V105.7H249.789V0H231.367V35.334C231.367 37.599 231.367 39.864 231.971 42.582C227.743 35.485 220.646 29.596 209.17 29.596C191.956 29.596 175.195 42.733 175.195 69.158C175.195 95.13 189.389 108.418 208.868 108.418ZM193.919 69.007C193.919 54.36 202.224 44.243 213.247 44.243C224.27 44.243 232.424 53.907 232.424 69.007C232.424 83.805 224.27 93.922 213.247 93.922C202.224 93.922 193.919 84.258 193.919 69.007Z" fill="black"/>
<path d="M94 106.104H112.422V63.069C112.422 52.65 119.066 44.647 128.428 44.647C137.488 44.647 142.622 51.593 142.622 62.465V106.104H161.195V59.747C161.195 41.627 151.38 30 134.77 30C122.841 30 115.895 35.587 111.818 42.986C112.271 40.117 112.422 37.852 112.422 35.738V32.416H94V106.104Z" fill="black"/>
<path d="M0 55C0 41.1929 11.1929 30 25 30H51C64.8071 30 76 41.1929 76 55V106H25C11.1929 106 0 94.8071 0 81V55Z" fill="black"/>
<path d="M61 87C61 79.268 54.732 73 47 73H22C18.134 73 15 76.134 15 80C15 83.866 18.134 87 22 87H61Z" fill="#00FF38"/>
<path d="M15 63C15 55.268 21.268 49 29 49H54C57.866 49 61 52.134 61 56C61 59.866 57.866 63 54 63H15Z" fill="white"/>
</svg>