<svg id="Layer_1" data-name="Layer 1" xmlns="http://www.w3.org/2000/svg" width="319.4463mm" height="63.8902mm" viewBox="0 0 905.517 181.1062"><defs><style>.cls-1,.cls-6{fill:#8a8c8e;}.cls-2,.cls-4{fill:#1991c1;}.cls-3{fill:#05688b;}.cls-3,.cls-4,.cls-5,.cls-6{fill-rule:evenodd;}.cls-5{fill:#b4b4b4;}</style></defs><title>logo_podstawowe_SVG</title><path class="cls-1" d="M760.8008,218.9531h15.8848L795.1875,160.99h.3281l20.47,57.9629h14.8994l25.0527-77.6123H840.3809L823.68,199.3076h-.3281l-19.6494-57.9668H788.1494l-18.5058,57.9668h-.3282L751.8,141.3408h-16.542Zm176.874-33.4v-5.2412a54.7052,54.7052,0,0,0-1.31-11.9258,43.2458,43.2458,0,0,0-4.123-11.1055,34.6431,34.6431,0,0,0-7.2578-9.2548,32.5014,32.5014,0,0,0-10.6983-6.3057,42.5053,42.5053,0,0,0-14.4375-2.3457,41.6317,41.6317,0,0,0-16.0722,3.1143,37.69,37.69,0,0,0-12.69,8.54,38.757,38.757,0,0,0-8.3486,12.9365,43.9782,43.9782,0,0,0-3.0029,16.1846,46.716,46.716,0,0,0,2.7822,16.1006,37.9581,37.9581,0,0,0,7.999,12.9365,36.1119,36.1119,0,0,0,12.5782,8.5937,42.7424,42.7424,0,0,0,16.5927,3.1407,46.2767,46.2767,0,0,0,19.7032-3.9571,38.8749,38.8749,0,0,0,14.6826-11.9287l-11.1338-8.5107a35.4118,35.4118,0,0,1-9.4141,8.457,23.06,23.06,0,0,1-11.875,3.1651,30.1545,30.1545,0,0,1-9.8242-1.6094,26.9,26.9,0,0,1-8.3769-4.584,21.9756,21.9756,0,0,1-5.8116-7.15,20.3009,20.3009,0,0,1-2.1836-9.25Zm-62.2217-11.7891a19.7388,19.7388,0,0,1,1.7168-7.8857,23.828,23.828,0,0,1,4.8594-7.291,24.57,24.57,0,0,1,7.5869-5.35,26.0441,26.0441,0,0,1,22.27.9023,18.7725,18.7725,0,0,1,7.4208,8.0235,27.52,27.52,0,0,1,2.6495,11.6005Zm75.3526,45.19H965.544V207.8222h.3281a27.2,27.2,0,0,0,7.2285,7.0967,34.3451,34.3451,0,0,0,9.3887,4.4746,36.5533,36.5533,0,0,0,10.3984,1.5274,41.98,41.98,0,0,0,16.3174-3.1407,36.2871,36.2871,0,0,0,12.4463-8.6474,38.517,38.517,0,0,0,7.915-12.94,47.8177,47.8177,0,0,0-.0293-32.2276,38.15,38.15,0,0,0-7.94-12.9365,36.0858,36.0858,0,0,0-12.4453-8.54,41.9034,41.9034,0,0,0-16.2637-3.1143,36.4,36.4,0,0,0-10.7764,1.6094,33.1219,33.1219,0,0,0-9.3886,4.5332,25.4033,25.4033,0,0,0-6.8506,6.96h-.3281V95.167H950.8057Zm40.2812-11.7881a26.2312,26.2312,0,0,1-13.6191-3.5195,23.1144,23.1144,0,0,1-8.7881-9.4961,32.8231,32.8231,0,0,1,0-28.001,23.1272,23.1272,0,0,1,8.7881-9.501,28.1134,28.1134,0,0,1,27.2363,0,23.1189,23.1189,0,0,1,8.79,9.501,32.8221,32.8221,0,0,1,0,28.001,23.1061,23.1061,0,0,1-8.79,9.4961A26.2192,26.2192,0,0,1,991.0869,207.165Z" transform="translate(-126.8316 -70.1028)"/><path class="cls-2" d="M457.0659,115.3066a42.9775,42.9775,0,0,0-11.4873-10.3984,49.8162,49.8162,0,0,0-14.0259-5.8975,63.3589,63.3589,0,0,0-34.7651,1.1778,56.7316,56.7316,0,0,0-16.2681,8.5654,58.314,58.314,0,0,0-12.4985,13.1289,60.5252,60.5252,0,0,0-7.9951,16.7549,67.9516,67.9516,0,0,0,.1084,39.2441,59.2114,59.2114,0,0,0,8.24,16.8135,56.4988,56.4988,0,0,0,12.666,12.96,57.7044,57.7044,0,0,0,16.21,8.3526,61.0091,61.0091,0,0,0,18.8838,2.9453,59.7814,59.7814,0,0,0,24.9985-4.9375A47.679,47.679,0,0,0,460.0151,198.65l-10.3144-8.6768a41.4614,41.4614,0,0,1-14.57,12.0342,45.03,45.03,0,0,1-36.8994.4365,41.86,41.86,0,0,1-13.9717-10.2617,46.5355,46.5355,0,0,1-9.0884-15.2813,55.1867,55.1867,0,0,1-3.2485-18.86,51.45,51.45,0,0,1,8.1069-27.918,46.9068,46.9068,0,0,1,9.3628-10.5859,42.1269,42.1269,0,0,1,12.1953-7.0713,41.5676,41.5676,0,0,1,14.5459-2.5635,38.0441,38.0441,0,0,1,10.9434,1.58,35.7667,35.7667,0,0,1,9.9375,4.6934,33.9048,33.9048,0,0,1,8.1025,7.8076Zm15.2613,100.7012h12.7739V178.6767a43.66,43.66,0,0,1,2.3457-15.1787,19.9868,19.9868,0,0,1,7.3711-9.8242c3.2983-2.292,7.5327-3.4648,12.7153-3.49a24.8469,24.8469,0,0,1,3.4942.2461,21.64,21.64,0,0,1,3.3857.7363l.8149-12.9365a12.1447,12.1447,0,0,0-2.6748-.6524,20.6055,20.6055,0,0,0-2.562-.167,31.2075,31.2075,0,0,0-11.4634,2.1016,28.1767,28.1767,0,0,0-8.7309,5.3477,21.964,21.964,0,0,0-5.3491,7.121H484.12c-.0293-2.125-.0835-4.2548-.1626-6.3554-.1123-2.13-.166-4.2041-.166-6.251H471.6743q.0432,3.8057.3281,8.3516.2873,4.5425.3248,9.8242Zm45.7168-38.3164a43.22,43.22,0,0,0,3.0864,16.375,36.8575,36.8575,0,0,0,8.5449,12.7158,38.3711,38.3711,0,0,0,12.9609,8.2686,47.1995,47.1995,0,0,0,32.6924,0,38.13,38.13,0,0,0,12.96-8.2686,36.9068,36.9068,0,0,0,8.5434-12.7158,45.033,45.033,0,0,0,0-32.7471,37.0434,37.0434,0,0,0-8.5434-12.749,38.5819,38.5819,0,0,0-12.96-8.24,47.2131,47.2131,0,0,0-32.6924,0,38.8288,38.8288,0,0,0-12.9609,8.24,36.9939,36.9939,0,0,0-8.5449,12.749A43.2152,43.2152,0,0,0,518.044,177.6914Zm13.7563,0a32.5276,32.5276,0,0,1,1.91-11.2149,27.28,27.28,0,0,1,5.4863-9.0634,24.9968,24.9968,0,0,1,8.5684-6.0313,29.9061,29.9061,0,0,1,22.4355,0,25.0445,25.0445,0,0,1,8.5684,6.0313,27.2676,27.2676,0,0,1,5.4809,9.0634,33.8287,33.8287,0,0,1,0,22.4327,27.4925,27.4925,0,0,1-5.4809,9.0585A25.031,25.031,0,0,1,570.2,203.999a29.9061,29.9061,0,0,1-22.4355,0,24.9833,24.9833,0,0,1-8.5684-6.0313,27.5052,27.5052,0,0,1-5.4863-9.0585A32.5727,32.5727,0,0,1,531.8,177.6914Zm74.86,26.0332a34.3615,34.3615,0,0,0,8.185,8.49A29.266,29.266,0,0,0,624.67,216.69a51.73,51.73,0,0,0,23.0054-.0254,30.9761,30.9761,0,0,0,9.7954-4.2344,21.1158,21.1158,0,0,0,6.959-7.4492,22.5262,22.5262,0,0,0,2.6494-11.0771,22.1678,22.1678,0,0,0-1.9922-9.7158,18.1873,18.1873,0,0,0-5.4321-6.5508,30.143,30.143,0,0,0-7.97-4.1485,67.2471,67.2471,0,0,0-9.6587-2.5078c-2.566-.4951-4.9966-1.04-7.313-1.6679a39.6079,39.6079,0,0,1-6.168-2.2374,13.033,13.033,0,0,1-4.2578-3.083,6.2414,6.2414,0,0,1-1.5811-4.1513,8.3113,8.3113,0,0,1,1.3643-4.6953,10.6192,10.6192,0,0,1,3.5186-3.3282,17.7929,17.7929,0,0,1,4.8579-1.9629,22.1758,22.1758,0,0,1,5.32-.6572,18.465,18.465,0,0,1,9.7168,2.5664,18.9946,18.9946,0,0,1,6.4931,6.6055l10.6441-7.042a24.265,24.265,0,0,0-6.6841-7.97,26.9292,26.9292,0,0,0-8.9512-4.5293,37.3164,37.3164,0,0,0-10.3989-1.419,38.3577,38.3577,0,0,0-10.478,1.4473,30.4921,30.4921,0,0,0-9.1968,4.2549,21.7148,21.7148,0,0,0-6.4956,7.0713,19.7434,19.7434,0,0,0-2.4834,9.8252,20.0665,20.0665,0,0,0,2.1836,9.7119,16.6212,16.6212,0,0,0,5.8677,6.1435,35.5131,35.5131,0,0,0,8.5947,3.795q4.872,1.4282,10.3721,2.62c2.0722.4316,4.0644.9267,6.0029,1.5009a25.4,25.4,0,0,1,5.2661,2.1553,10.7512,10.7512,0,0,1,3.71,3.3565,9.3169,9.3169,0,0,1,1.393,5.1035,9.8062,9.8062,0,0,1-1.5019,5.373,11.7742,11.7742,0,0,1-3.9263,3.6612,19.2871,19.2871,0,0,1-5.4033,2.0966,27.9325,27.9325,0,0,1-6.0361.6563,23.2677,23.2677,0,0,1-7.9644-1.28,21.5007,21.5007,0,0,1-6.33-3.6025,36.31,36.31,0,0,1-5.35-5.4317Zm65.1982,0a34.4415,34.4415,0,0,0,8.1855,8.49,29.3143,29.3143,0,0,0,9.8247,4.4756,51.7332,51.7332,0,0,0,23.0064-.0254,30.9955,30.9955,0,0,0,9.8-4.2344,21.1909,21.1909,0,0,0,6.959-7.4492,22.52,22.52,0,0,0,2.6455-11.0771,22.1057,22.1057,0,0,0-1.9927-9.7158,18.1671,18.1671,0,0,0-5.4282-6.5508,30.2689,30.2689,0,0,0-7.9692-4.1485,67.2843,67.2843,0,0,0-9.6626-2.5078c-2.5664-.4951-4.9956-1.04-7.3121-1.6679a39.5488,39.5488,0,0,1-6.1689-2.2374,13.0832,13.0832,0,0,1-4.2593-3.083,6.2413,6.2413,0,0,1-1.58-4.1513,8.338,8.338,0,0,1,1.3647-4.6953,10.6129,10.6129,0,0,1,3.5181-3.3282,17.8593,17.8593,0,0,1,4.8584-1.9629,22.2186,22.2186,0,0,1,5.32-.6572,18.4663,18.4663,0,0,1,9.7168,2.5664,19.0387,19.0387,0,0,1,6.4966,6.6055l10.6445-7.042a24.3172,24.3172,0,0,0-6.6885-7.97,26.9223,26.9223,0,0,0-8.9516-4.5293,37.2986,37.2986,0,0,0-10.3946-1.419,38.3693,38.3693,0,0,0-10.4814,1.4473,30.4584,30.4584,0,0,0-9.1968,4.2549,21.7459,21.7459,0,0,0-6.4971,7.0713,19.75,19.75,0,0,0-2.4834,9.8252,20.079,20.079,0,0,0,2.1836,9.7119,16.649,16.649,0,0,0,5.8692,6.1435,35.444,35.444,0,0,0,8.5976,3.795c3.2447.9521,6.709,1.8252,10.37,2.62,2.0708.4316,4.0679.9267,6.002,1.5009a25.3138,25.3138,0,0,1,5.2661,2.1553,10.758,10.758,0,0,1,3.7139,3.3565,9.3445,9.3445,0,0,1,1.39,5.1035,9.8408,9.8408,0,0,1-1.4975,5.373,11.8359,11.8359,0,0,1-3.9307,3.6612,19.2467,19.2467,0,0,1-5.4033,2.0966,27.9248,27.9248,0,0,1-6.0313.6563,23.2933,23.2933,0,0,1-7.97-1.28,21.4994,21.4994,0,0,1-6.3311-3.6025,36.3066,36.3066,0,0,1-5.3486-5.4317Z" transform="translate(-126.8316 -70.1028)"/><path class="cls-3" d="M139.2539,82.5224h0a42.71,42.71,0,0,1,60.2207,0l14.5786,14.5791-10.4189,10.4229L188.6108,92.5058a27.9255,27.9255,0,0,0-39.3745,0h0a27.9214,27.9214,0,0,0,0,39.377l39.0454,39.0449-10.4238,10.4229-38.604-38.6036a42.7082,42.7082,0,0,1,0-60.2246m7.42,30.084a22.6628,22.6628,0,1,0,22.6651-22.6592A22.6608,22.6608,0,0,0,146.6743,112.6064Z" transform="translate(-126.8316 -70.1028)"/><path class="cls-4" d="M295.5166,238.7851h0a42.7085,42.7085,0,0,1-60.2256,0l-14.7578-14.7568,10.4238-10.4248,15.1988,15.2041a27.9312,27.9312,0,0,0,39.3779,0h0a27.93,27.93,0,0,0,0-39.3779l-39.0449-39.05,10.4238-10.4239,38.604,38.6084a42.7106,42.7106,0,0,1,0,60.2207m-7.4248-30.081a22.6609,22.6609,0,1,0-22.6606,22.66A22.66,22.66,0,0,0,288.0918,208.7041Z" transform="translate(-126.8316 -70.1028)"/><path class="cls-5" d="M157.1563,160.6572l.0039-.0039,10.4238,10.4238-.0039.0039ZM139.2539,238.79v-.0049a42.7034,42.7034,0,0,1,0-60.2207l14.7539-14.7539,10.4238,10.4239L149.2363,189.43a27.9224,27.9224,0,0,0,0,39.3779h0a27.9271,27.9271,0,0,0,39.3745,0l39.0479-39.0469,10.4194,10.4248L199.479,238.79A42.7168,42.7168,0,0,1,139.2539,238.79Zm30.0855-7.4258a22.6607,22.6607,0,1,0-22.6607-22.66A22.6592,22.6592,0,0,0,169.3394,231.3642Z" transform="translate(-126.8316 -70.1028)"/><path class="cls-6" d="M277.6309,160.6289l-.0254.0244L267.1821,150.23l.0288-.0244Zm17.8813-78.1065h.0044a42.7153,42.7153,0,0,1,0,60.2246L280.7837,157.48,270.36,147.0566l15.1738-15.1738a27.9285,27.9285,0,0,0,0-39.377h0a27.93,27.93,0,0,0-39.3779,0l-39.044,39.044L196.688,121.125l38.603-38.6026A42.71,42.71,0,0,1,295.5122,82.5224Zm-30.081,7.4248a22.66,22.66,0,1,0,22.6606,22.6592A22.66,22.66,0,0,0,265.4312,89.9472Z" transform="translate(-126.8316 -70.1028)"/></svg>