<?xml version="1.0" encoding="UTF-8" standalone="no"?>
<!DOCTYPE svg PUBLIC "-//W3C//DTD SVG 1.1//EN" "http://www.w3.org/Graphics/SVG/1.1/DTD/svg11.dtd">
<svg xmlns="http://www.w3.org/2000/svg" xmlns:xlink="http://www.w3.org/1999/xlink" version="1.1" width="2338.5826pt" height="1653.5432pt" viewBox="0 0 2338.5826 1653.5432">
<g enable-background="new">
<path transform="matrix(2.7777777,0,0,-2.7777777,0,1653.5432)" d="M 106.3196 370.3878 L 735.5701 370.3878 L 735.5701 224.8877 L 106.3196 224.8877 Z " fill="#ffffff" fill-rule="evenodd"/>
<path transform="matrix(2.7777777,0,0,-2.7777777,0,1653.5432)" d="M 287.706 352.7923 C 287.706 356.7036 284.5052 359.9039 280.5934 359.9039 L 140.1523 359.9039 C 136.2402 359.9039 133.0384 356.7036 133.0384 352.7923 L 133.0384 242.4827 C 133.0384 238.5731 136.2402 235.3717 140.1523 235.3717 L 280.5934 235.3717 C 284.5052 235.3717 287.706 238.5731 287.706 242.4827 Z " fill="#064e79" fill-rule="evenodd"/>
<path transform="matrix(2.7777777,0,0,-2.7777777,0,1653.5432)" d="M 333.7285 301.3617 L 361.9712 301.3617 L 361.9712 292.8399 L 333.7285 292.8399 Z M 316.9188 269.7409 L 316.9188 325.5386 L 364.2718 325.5386 L 364.2718 315.7869 L 326.5897 315.7869 L 326.5897 269.7409 Z " fill="#064e79"/>
<path transform="matrix(2.7777777,0,0,-2.7777777,0,1653.5432)" d="M 410.0859 279.4887 C 420.3723 279.4887 427.6641 287.2403 427.6641 297.7537 C 427.6641 308.2686 420.3723 315.7872 410.0859 315.7872 L 396.5031 315.7872 C 386.5269 315.7872 379.1602 308.344 379.1602 297.7537 C 379.1602 287.2403 386.4521 279.4887 396.5031 279.4887 Z M 396.5031 269.7409 C 380.9256 269.7409 369.4093 282.0197 369.4093 298.2161 C 369.4093 314.6363 380.9256 325.5386 396.5031 325.5386 L 410.0859 325.5386 C 426.2049 325.5386 437.4099 314.4064 437.4099 298.2161 C 437.4099 282.0197 425.973 269.7409 410.0859 269.7409 Z " fill="#064e79"/>
<path transform="matrix(2.7777777,0,0,-2.7777777,0,1653.5432)" d="M 497.1161 269.7409 L 482.9947 285.2453 L 462.119 285.2453 L 462.119 293.8382 L 485.3767 293.8382 C 492.3541 293.8382 496.0434 297.8325 496.0434 305.045 C 496.0434 312.2592 492.0503 315.7869 485.3767 315.7869 L 454.9827 315.7869 L 454.9827 269.7409 L 445.3118 269.7409 L 445.3118 325.5386 L 485.3767 325.5386 C 498.1153 325.5386 505.6362 317.6325 505.6362 305.1967 C 505.6362 295.988 501.3408 289.4644 494.1198 286.702 L 510.9313 269.7409 Z " fill="#064e79"/>
<path transform="matrix(2.7777777,0,0,-2.7777777,0,1653.5432)" d="M 534.6431 293.9919 L 534.6431 302.2081 L 558.7404 302.2081 C 564.2646 302.2081 566.8767 304.1254 566.8767 308.9597 C 566.8767 314.8682 562.195 315.7872 554.9825 315.7872 L 527.5811 315.7872 L 527.5811 279.4124 L 555.8241 279.4124 C 562.8101 279.4124 567.8748 281.3301 567.8748 286.7797 C 567.8748 291.3854 564.8794 293.9919 559.4304 293.9919 Z M 517.8342 269.7412 L 517.8342 325.5386 L 558.6636 325.5386 C 569.5622 325.5386 576.7795 320.6256 576.7795 311.1063 C 576.7795 304.0461 573.1705 300.5181 569.0251 299.2119 C 574.0894 297.6004 577.7756 293.1514 577.7756 286.6275 C 577.7756 276.4191 570.7176 269.7412 559.8139 269.7412 Z " fill="#064e79"/>
<path transform="matrix(2.7777777,0,0,-2.7777777,0,1653.5432)" d="M 626.1205 279.4887 C 636.406 279.4887 643.6984 287.2403 643.6984 297.7537 C 643.6984 308.2686 636.406 315.7872 626.1205 315.7872 L 612.54 315.7872 C 602.5581 315.7872 595.1925 308.344 595.1925 297.7537 C 595.1925 287.2403 602.4858 279.4887 612.54 279.4887 Z M 612.54 269.7409 C 596.958 269.7409 585.4431 282.0197 585.4431 298.2161 C 585.4431 314.6363 596.958 325.5386 612.54 325.5386 L 626.1205 325.5386 C 642.2389 325.5386 653.4408 314.4064 653.4408 298.2161 C 653.4408 282.0197 642.0098 269.7409 626.1205 269.7409 Z " fill="#064e79"/>
<path transform="matrix(2.7777777,0,0,-2.7777777,0,1653.5432)" d="M 677.9248 269.7409 L 677.9248 315.7869 L 656.7403 315.7869 L 656.7403 325.5386 L 708.8511 325.5386 L 708.8511 315.7869 L 687.6703 315.7869 L 687.6703 269.7409 Z " fill="#064e79"/>
<path transform="matrix(2.7777777,0,0,-2.7777777,0,1653.5432)" d="M 219.2734 329.0423 L 239.5052 332.2562 L 239.5052 332.2624 L 243.4859 332.8934 L 246.342 331.5951 L 248.6948 331.9603 L 241.7624 342.8079 L 238.8555 342.8079 L 221.4944 342.8079 L 202.7843 342.8079 C 201.1623 342.8079 200.8429 341.9427 202.0711 340.8837 L 214.1314 330.5004 C 215.3614 329.4465 217.6736 328.7886 219.2734 329.0423 Z M 249.9392 319.1817 L 247.9612 318.6887 L 245.7164 315.3237 L 226.7855 310.4036 C 225.2089 310.0581 222.8406 310.29 221.4133 310.945 L 216.3331 313.2865 C 214.8602 313.9637 213.4148 313.2142 213.1194 311.6228 L 210.9385 299.8874 C 210.6422 298.2932 211.7106 296.7829 213.3085 296.5309 L 222.9849 295.0013 L 247.4739 303.6821 Z M 202.6981 323.5207 L 198.5034 308.5682 C 198.1559 307.3192 196.8593 306.5905 195.6104 306.9422 C 194.3603 307.2923 193.6321 308.5869 193.9833 309.8356 L 198.1772 324.7832 C 198.5272 326.0347 199.8227 326.7612 201.0708 326.4126 C 202.3217 326.0625 203.0499 324.7676 202.6981 323.5207 Z M 211.9306 325.0757 C 212.2271 326.67 211.4663 328.8362 210.2366 329.8935 L 197.5221 340.8398 C 196.2952 341.8974 194.8116 341.5266 194.2285 340.0132 L 178.3885 298.9644 C 177.8054 297.4541 177.4216 294.8973 177.537 293.279 L 180.2526 255.4058 C 180.3688 253.7887 181.7884 252.4674 183.4087 252.4674 L 207.4153 252.4674 C 209.0358 252.4674 210.1876 253.7807 209.9744 255.39 L 205.7837 287.0461 C 205.5705 288.6531 205.6382 291.2678 205.9353 292.8628 Z " fill="#ffffff"/>
</g>
</svg>
