<svg xmlns="http://www.w3.org/2000/svg" xml:space="preserve" viewBox="45 40 160 90">
<path d="M110.499 45.846h4.104v11.328h4.863V45.846h4.104v27.061h-4.104V60.406h-4.863v12.501h-4.104V45.846zM130.881 45.846h4.721l5.007 27.061h-4.15l-.745-4.848h-4.943l-.713 4.848h-4.167l4.99-27.061zm4.357 19.123-1.901-13.483h-.174l-1.917 13.483h3.992zM149.054 73.144c-.423 0-.879-.034-1.37-.103-.491-.069-.982-.214-1.474-.436s-.961-.536-1.41-.943c-.449-.406-.845-.942-1.188-1.607-.343-.666-.618-1.487-.823-2.464-.206-.977-.31-2.142-.31-3.493v-9.586c0-1.362.105-2.527.317-3.493.211-.967.491-1.78.839-2.44.349-.659.75-1.186 1.205-1.576a5.416 5.416 0 0 1 2.859-1.299c.48-.063.927-.096 1.339-.096 1.077 0 1.978.15 2.701.452.724.301 1.305.713 1.743 1.235.438.523.749 1.133.935 1.83.185.697.277 1.437.277 2.218 0 .581-.029 1.117-.088 1.608a21.822 21.822 0 0 1-.261 1.624h-3.327v-1.378c0-1.489-.164-2.604-.491-3.344-.328-.739-.809-1.108-1.442-1.108-.38 0-.713.073-.998.222-.285.147-.522.398-.713.752-.189.354-.335.822-.436 1.402-.101.581-.15 1.305-.15 2.171V65.65c0 .846.04 1.548.119 2.107.079.561.208 1.009.388 1.347.18.339.415.578.705.721.291.143.642.214 1.054.214.264 0 .518-.061.761-.182.242-.121.456-.312.642-.57.185-.259.333-.586.443-.982.111-.396.166-.863.166-1.402v-2.646h3.756v2.503c0 2.176-.497 3.781-1.49 4.816-.993 1.035-2.418 1.557-4.278 1.568zM158.053 45.846h4.104v11.819h.126l4.69-11.819h4.087l-5.228 12.69 5.814 14.37h-4.389l-4.976-12.881h-.126v12.881h-4.104v-27.06zM173.976 45.846h10.028v3.231h-5.925v8.097h4.578v3.231h-4.578v9.269h6.084v3.232h-10.188v-27.06zM187.126 45.846h4.452c.507 0 1.063.021 1.671.063s1.215.145 1.822.309 1.193.409 1.759.736c.564.328 1.066.776 1.505 1.347s.789 1.286 1.054 2.147c.264.86.396 1.903.396 3.129v.682c0 2.06-.296 3.736-.888 5.03s-1.463 2.226-2.614 2.796l4.341 10.821h-4.341l-3.597-10.124h-1.536v10.124h-4.024v-27.06zm4.642 13.974c.719 0 1.325-.079 1.822-.237a2.489 2.489 0 0 0 1.204-.801c.307-.374.528-.871.665-1.489.138-.617.206-1.381.206-2.289v-2.139c0-.697-.063-1.299-.189-1.807-.127-.507-.341-.924-.642-1.251-.302-.327-.7-.57-1.196-.729-.497-.158-1.12-.237-1.87-.237h-.617V59.82h.617zM109.453 96.7c0-.581.034-1.117.103-1.608.069-.491.172-1.022.31-1.593h3.185v1.315c0 .729.045 1.373.135 1.933.089.561.237 1.033.443 1.418.206.386.48.677.824.872.343.195.763.293 1.259.293.782 0 1.379-.214 1.791-.642.411-.428.617-1.054.617-1.878a7.21 7.21 0 0 0-.087-1.164c-.058-.354-.158-.705-.301-1.054s-.336-.716-.578-1.102a14.47 14.47 0 0 0-.936-1.291l-4.277-5.086c-.761-.972-1.347-1.951-1.759-2.938a8.127 8.127 0 0 1-.618-3.161c0-.897.141-1.722.42-2.472a5.52 5.52 0 0 1 1.213-1.94c.527-.544 1.18-.967 1.956-1.268.776-.302 1.656-.452 2.638-.452 1.194 0 2.189.169 2.987.508.797.338 1.434.781 1.909 1.33.475.55.811 1.165 1.006 1.846.195.682.293 1.365.293 2.052 0 .581-.045 1.117-.135 1.608s-.192 1.032-.309 1.624h-3.169v-1.283c0-1.437-.206-2.537-.618-3.304-.412-.766-1.083-1.148-2.012-1.148-.771 0-1.347.214-1.728.642-.38.428-.57 1.001-.57 1.719 0 .381.029.724.088 1.03.058.307.143.589.253.848.111.259.246.51.404.753.158.242.338.496.538.76l4.77 5.768c.866 1.13 1.531 2.216 1.996 3.256s.697 2.142.697 3.303c0 .962-.15 1.828-.452 2.599a5.422 5.422 0 0 1-1.291 1.965 5.724 5.724 0 0 1-2.027 1.243c-.793.291-1.686.437-2.678.437-1.226 0-2.242-.164-3.05-.491-.809-.327-1.453-.761-1.934-1.3a4.634 4.634 0 0 1-1.014-1.838 7.707 7.707 0 0 1-.292-2.109zM125.483 75.121h4.104c.517 0 1.085.023 1.703.071a9.508 9.508 0 0 1 1.854.332 6.91 6.91 0 0 1 1.79.801 5.418 5.418 0 0 1 1.529 1.465c.443.618.8 1.393 1.069 2.321.27.93.404 2.06.404 3.391v.951c0 1.446-.125 2.685-.373 3.715s-.578 1.896-.99 2.599c-.411.702-.89 1.265-1.434 1.688a6.351 6.351 0 0 1-1.695.958 7.619 7.619 0 0 1-1.774.428c-.597.069-1.159.104-1.688.104h-.396v8.238h-4.104V75.121zm4.309 15.811c.738 0 1.362-.108 1.869-.324a2.675 2.675 0 0 0 1.212-1.015c.301-.459.518-1.051.649-1.774s.198-1.592.198-2.606v-2.439c0-.803-.059-1.497-.174-2.084-.117-.586-.325-1.069-.626-1.449s-.705-.663-1.212-.848c-.508-.185-1.146-.277-1.917-.277h-.206v12.817h.207zM143.208 75.121h4.721l5.007 27.061h-4.15l-.745-4.848h-4.943l-.713 4.848h-4.167l4.99-27.061zm4.357 19.123-1.901-13.483h-.174l-1.917 13.483h3.992zM161.38 102.418c-.423 0-.879-.034-1.37-.103-.491-.069-.982-.214-1.474-.436s-.961-.536-1.41-.943c-.449-.406-.845-.942-1.188-1.607-.343-.666-.618-1.487-.823-2.464-.206-.977-.31-2.142-.31-3.493v-9.586c0-1.362.105-2.527.317-3.493.211-.967.491-1.78.839-2.44.349-.659.75-1.186 1.205-1.576a5.416 5.416 0 0 1 1.409-.896c.486-.205.97-.34 1.45-.403s.927-.096 1.339-.096c1.077 0 1.978.15 2.701.452.724.301 1.305.713 1.743 1.235.438.523.749 1.133.935 1.83.185.697.277 1.437.277 2.218 0 .581-.029 1.117-.088 1.608a21.822 21.822 0 0 1-.261 1.624h-3.327v-1.378c0-1.489-.164-2.604-.491-3.344-.328-.739-.809-1.108-1.442-1.108-.38 0-.713.073-.998.222-.285.147-.522.398-.713.752-.189.354-.335.822-.436 1.402-.101.581-.15 1.305-.15 2.171v12.357c0 .846.04 1.548.119 2.107.079.561.208 1.009.388 1.347.18.339.415.578.705.721.291.143.642.214 1.054.214.264 0 .518-.061.761-.182.242-.121.456-.312.642-.57.185-.259.333-.586.443-.982.111-.396.166-.863.166-1.402V93.53h3.756v2.503c0 2.176-.497 3.781-1.49 4.816-.992 1.036-2.418 1.559-4.278 1.569zM170.38 75.121h10.028v3.231h-5.925v8.097h4.578v3.231h-4.578v9.269h6.084v3.232H170.38v-27.06zM108.531 105.747h2.315l1.074 9.637.121 2.251h.234l.224-2.53 1.719-9.357h1.933l1.644 9.357.187 2.53h.243l.112-2.251.98-9.637h2.325l-2.231 15.95h-2.456l-1.317-7.667-.411-3.334h-.187l-.401 3.334-1.382 7.667h-2.429l-2.297-15.95zM123.361 105.747h2.624c.299 0 .628.012.985.037.358.024.716.086 1.074.182.358.097.703.241 1.036.435s.629.458.888.794c.258.336.465.758.621 1.266.155.507.233 1.122.233 1.844v.401c0 1.215-.175 2.203-.523 2.966s-.862 1.312-1.54 1.648l2.559 6.378h-2.559l-2.12-5.968h-.906v5.968h-2.372v-15.951zm2.736 8.236c.424 0 .781-.047 1.074-.14a1.48 1.48 0 0 0 .71-.472c.18-.222.311-.514.392-.878s.122-.814.122-1.35v-1.261c0-.411-.038-.766-.112-1.064a1.67 1.67 0 0 0-.378-.738 1.613 1.613 0 0 0-.705-.43c-.293-.093-.66-.14-1.103-.14h-.364v6.472h.364zM136.677 121.836c-.256 0-.532-.02-.831-.061a3.214 3.214 0 0 1-1.733-.813 3.334 3.334 0 0 1-.719-.947c-.209-.393-.376-.877-.5-1.452-.125-.576-.187-1.263-.187-2.06v-5.65c0-.803.063-1.489.191-2.059.127-.569.297-1.049.509-1.438.212-.389.453-.698.724-.929s.554-.406.85-.528c.296-.121.59-.2.883-.238.293-.037.563-.056.813-.056.236 0 .5.018.789.052s.579.108.868.224c.29.115.571.287.846.514.273.228.517.536.729.925.211.389.381.872.509 1.447.127.576.191 1.271.191 2.087v5.65c0 .791-.065 1.471-.196 2.041-.131.569-.302 1.052-.514 1.447s-.456.713-.733.952c-.276.24-.56.427-.85.561a3.21 3.21 0 0 1-.863.267 5.273 5.273 0 0 1-.776.064zm0-1.82c.236 0 .443-.041.621-.122.178-.08.323-.221.438-.42s.202-.462.262-.789.089-.739.089-1.237v-7.256a7.61 7.61 0 0 0-.089-1.28c-.06-.342-.146-.617-.262-.826-.115-.208-.261-.356-.438-.443s-.385-.131-.621-.131c-.243 0-.454.044-.635.131s-.33.235-.448.443c-.119.209-.207.484-.267.826-.06.343-.089.77-.089 1.28v7.256c0 .498.029.91.089 1.237s.147.59.267.789c.118.199.268.34.448.42.181.081.392.122.635.122zM146.333 121.836c-.249 0-.518-.02-.808-.061a3.145 3.145 0 0 1-1.699-.813 3.316 3.316 0 0 1-.701-.947c-.202-.393-.363-.877-.485-1.452-.121-.576-.182-1.263-.182-2.06v-5.65c0-.803.062-1.489.187-2.059.124-.569.289-1.049.495-1.438.205-.389.441-.698.71-.929a3.204 3.204 0 0 1 1.685-.766c.283-.037.546-.056.789-.056.635 0 1.165.089 1.592.267.427.177.77.42 1.027.729.259.308.442.667.551 1.078.109.411.164.847.164 1.308 0 .343-.018.658-.052.948-.034.289-.086.608-.154.957h-1.961v-.813c0-.878-.097-1.535-.289-1.971-.193-.436-.477-.653-.851-.653-.224 0-.42.043-.588.13a1.02 1.02 0 0 0-.42.444c-.112.208-.198.483-.257.826-.06.343-.089.769-.089 1.279v7.284c0 .498.023.912.07 1.242.046.33.122.595.229.794a.944.944 0 0 0 .415.425c.172.084.379.126.621.126a.979.979 0 0 0 .448-.107c.144-.071.27-.184.379-.336.108-.152.195-.346.261-.579s.099-.509.099-.826v-1.56h2.213v1.476c0 1.282-.293 2.229-.878 2.839s-1.425.919-2.521.924z"/><path d="m151.638 116.467-.971.756-1.103-1.447 2.073-1.662v-8.526h2.391v6.603l1.84-1.494 1.214 1.568-3.054 2.363v5.136h3.307v1.934h-5.697v-5.231zM160.613 105.747h2.783l2.951 15.95H163.9l-.438-2.857h-2.914l-.42 2.857h-2.456l2.941-15.95zm2.568 11.271-1.121-7.947h-.103l-1.13 7.947h2.354zM166.87 105.747h2.315l1.074 9.637.121 2.251h.234l.224-2.53 1.719-9.357h1.933l1.644 9.357.187 2.53h.243l.112-2.251.98-9.637h2.325l-2.231 15.95h-2.456l-1.317-7.667-.411-3.334h-.187l-.401 3.334-1.382 7.667h-2.429l-2.297-15.95zM98.944 67.592l5.733-1.434 2.004-20.054H67.305l.816 29.389-3.892-1.245-1.563-28.144H46.793l6.043 58.737.023.225 5.458 3.898 7.323-3.675-.71-15.638 12.109 5.39 11.807-5.294-.348 7.586-4.04 2.103-7.418-3.604-7.94 3.813.46 16.886 7.486 4.905 23.666-16.522 3.162-30.573-8.386-1.699-9.732 2.948.537-15.876 4.069-.606-.229 7.37 8.811 1.114zM61.719 47.104l1.508 27.131-7.167 1.792-2.305-28.923h7.964zm-2.924 60.5-1.897-21.528 7.009 3.12.704 15.49-5.816 2.918zm-1.409-30.878 6.346-1.586 4.418 1.413.106 3.828-10.87-3.655zm27.649 23.536 4.434-2.309.003-.073 5.993 2.912-10.739 6.665.309-7.195zm-7.998-3.32 6.316 3.068-6.314 3.287-6.317-3.321 6.315-3.034zm18.501-23.27 5.902 1.196-15.844 5.494.126-3.717 9.816-2.973zM85.321 58.847l-.612 18.104h.001l-.165 4.833 18.206-6.313-2.987 28.886-22.228 15.518v-15.708l6.474-3.371-.364 8.51 12.826-7.96 1.544-16.807-20.479 9.183V47.104h28.039l-1.824 18.254-4.288 1.073.731-9.801-9.389 1.399-5.485.818z"/>
</svg>