<svg xmlns="http://www.w3.org/2000/svg" width="2048" height="768" viewBox="0 0 541.867 203.2"><path d="M-67.526 97.453h541.867v203.2H-67.526z" style="fill:#000;fill-opacity:1;stroke:none;stroke-width:.950416;stroke-opacity:1" transform="translate(67.526 -97.453)"/><g style="fill:#fff"><g aria-label="DZIAŁAĆ!" style="font-weight:900;font-stretch:condensed;font-size:15.3811px;font-family:&quot;Fira Sans Condensed&quot;;-inkscape-font-specification:&quot;Fira Sans Condensed, Heavy Condensed&quot;;word-spacing:0;stroke-width:.382614"><path d="M237.96 2573.02h-4.538l-1.922 10.89h4.537c3.476 0 6.076-2.37 6.63-5.476.553-3.138-1.231-5.415-4.707-5.415zm-1.692 7.844h-.815l.86-4.86h.816c1.507 0 2.353.845 2.077 2.43-.277 1.584-1.43 2.43-2.938 2.43zM252.556 2575.588l.446-2.569h-8.152l-.476 2.707h4.306l-5.29 5.614-.462 2.57h8.152l.477-2.723h-4.369zM254.54 2573.02l-1.922 10.89h3.414l1.923-10.89zM265.092 2583.91h3.599l-2.046-10.89h-3.937l-5.907 10.89h3.584l.83-1.647h3.63zm-.615-4.215h-1.97l1.524-3.03zM275.028 2573.02h-3.415l-.692 3.937-.892.23-.584 3.323.892-.23-.646 3.63h6.706l.461-2.585h-3.291l.354-1.984 1.2-.323.584-3.322-1.2.323zM284.995 2583.91h3.6l-2.047-10.89h-3.937l-5.906 10.89h3.583l.83-1.647h3.63zm-.615-4.215h-1.97l1.524-3.03zM290.025 2578.449c-.57 3.245 1.06 5.537 4.399 5.537 2.876 0 5.137-1.723 6.044-4.291h-3.599c-.461.723-1.169 1.138-1.938 1.138-1.153 0-1.707-.938-1.446-2.384.246-1.446 1.123-2.384 2.277-2.384.769 0 1.338.415 1.538 1.138h3.599c.015-2.569-1.646-4.291-4.522-4.291-3.338 0-5.783 2.291-6.352 5.537zm9.074-10.029-4.276 1.692-.415 2.277 4.245-1.446zM303.868 2572.296l-.877 7.291h2.922l1.677-7.29zm-.2 11.736c1.2 0 2.076-.738 2.245-1.676.17-.954-.446-1.708-1.646-1.708-1.215 0-2.107.754-2.276 1.708-.17.938.461 1.676 1.677 1.676z" style="-inkscape-font-specification:&quot;Poppins Heavy Italic&quot;" transform="matrix(3.59543 0 0 3.59543 -631.519 -9123.897)"/></g><g aria-label="CZAS" style="font-weight:900;font-stretch:condensed;font-size:15.3811px;font-family:&quot;Fira Sans Condensed&quot;;-inkscape-font-specification:&quot;Fira Sans Condensed, Heavy Condensed&quot;;word-spacing:0;stroke-width:.382614"><path d="M182.821 2578.464c-.57 3.246 1.061 5.538 4.399 5.538 2.876 0 5.137-1.723 6.045-4.292h-3.6c-.46.723-1.168 1.138-1.937 1.138-1.154 0-1.708-.938-1.446-2.384.246-1.446 1.123-2.384 2.276-2.384.77 0 1.338.415 1.538 1.138h3.6c.015-2.568-1.646-4.29-4.523-4.29-3.337 0-5.783 2.29-6.352 5.536zM203.37 2575.603l.446-2.568h-8.152l-.477 2.707h4.307l-5.291 5.614-.461 2.569h8.152l.476-2.723h-4.368zM210.953 2583.925h3.6l-2.047-10.89h-3.937l-5.906 10.89h3.583l.83-1.646h3.63zm-.615-4.215h-1.969l1.523-3.03zM219.997 2584.032c2.8 0 4.43-1.523 4.43-3.507 0-3.122-4.338-3.153-4.338-4.46 0-.339.262-.554.6-.554.446 0 .708.292.6.861h3.676c.277-2.214-1.553-3.522-4.076-3.522-2.63 0-4.537 1.323-4.537 3.692 0 3.137 4.353 2.907 4.353 4.291 0 .354-.293.538-.646.538-.6 0-.846-.307-.785-.938h-3.63c-.277 2.446 1.615 3.6 4.353 3.6z" style="-inkscape-font-specification:&quot;Poppins Heavy Italic&quot;" transform="matrix(3.59543 0 0 3.59543 -631.519 -9123.897)"/></g></g><g style="fill:#fff;fill-opacity:1"><path d="M334.823 1533.19h-6.186l-1.783 10.087-4.765-10.086h-6.185l-3.483 19.727h6.186l1.755-9.92 4.792 9.92h6.186zM307.705 1533.19l-3.482 19.728h6.185l3.483-19.727zM336.835 1533.19l-.864 4.905h5.182l-2.619 14.823h6.186l2.619-14.823h5.238l.864-4.904zM367.743 1538.095l.863-4.904h-13.15l-3.484 19.727h13.151l.864-4.932h-6.965l.501-2.786h6.13l.836-4.654h-6.13l.418-2.451zM379.84 1540.045c-.222 1.17-.919 1.672-2.089 1.672H375.3l.585-3.344h2.452c1.17 0 1.672.669 1.505 1.672zm-.027-6.854h-9.195l-3.483 19.727h6.186l1.254-7.077 2.48 7.077h6.798l-2.953-7.551c2.98-.92 4.792-3.12 5.266-5.712.64-3.622-1.393-6.464-6.353-6.464zM408.269 1533.19h-6.186l-1.783 10.087-4.764-10.086h-6.186l-3.483 19.727h6.186l1.755-9.92 4.793 9.92h6.185zM422.57 1538.095l.863-4.904h-13.151l-3.483 19.727h13.151l.864-4.932h-6.966l.502-2.786h6.13l.836-4.654h-6.13l.418-2.451zM425.447 1533.19l-.864 4.905h5.182l-2.619 14.823h6.186l2.619-14.823h5.238l.864-4.904z" style="font-style:italic;font-variant:normal;font-weight:900;font-stretch:normal;font-size:27.8629px;line-height:1.25;font-family:Poppins;-inkscape-font-specification:&quot;Poppins Heavy Italic&quot;;text-align:end;word-spacing:0;text-anchor:end;opacity:1;fill:#fff;fill-opacity:1;stroke-width:.415865" transform="matrix(3.30794 0 0 3.30794 -967.492 -5035.312)"/><path d="M444.487 1553.14c2.173 0 3.761-1.337 4.068-3.037.306-1.727-.808-3.092-2.982-3.092-2.2 0-3.817 1.365-4.123 3.093-.307 1.7.835 3.036 3.037 3.036z" style="font-style:italic;font-variant:normal;font-weight:900;font-stretch:normal;font-size:27.8629px;line-height:1.25;font-family:Poppins;-inkscape-font-specification:&quot;Poppins Heavy Italic&quot;;text-align:end;word-spacing:0;text-anchor:end;fill:#fff;fill-opacity:1;stroke-width:.415865" transform="matrix(3.30794 0 0 3.30794 -967.492 -5035.312)"/></g></svg>