<?xml version="1.0" encoding="UTF-8" standalone="no"?>
<!-- Created with Inkscape (http://www.inkscape.org/) -->

<svg
   xmlns:dc="http://purl.org/dc/elements/1.1/"
   xmlns:cc="http://creativecommons.org/ns#"
   xmlns:rdf="http://www.w3.org/1999/02/22-rdf-syntax-ns#"
   xmlns:svg="http://www.w3.org/2000/svg"
   xmlns="http://www.w3.org/2000/svg"
   version="1.1"
   width="705.66248"
   height="532.16248"
   id="svg2985"
   xml:space="preserve"><metadata
     id="metadata2991"><rdf:RDF><cc:Work
         rdf:about=""><dc:format>image/svg+xml</dc:format><dc:type
           rdf:resource="http://purl.org/dc/dcmitype/StillImage" /><dc:title></dc:title></cc:Work></rdf:RDF></metadata><defs
     id="defs2989" /><g
     transform="matrix(1.25,0,0,-1.25,0,532.1625)"
     id="g2993"><path
       d="m 298.498,210.704 123,0 0,82 -123,0 0,-82 z"
       id="path2997"
       style="fill:#cccccc;fill-opacity:1;fill-rule:nonzero;stroke:none" /><path
       d="m 380.498,333.704 123,0 0,82 -123,0 0,-82 z"
       id="path2999"
       style="fill:#ebebeb;fill-opacity:1;fill-rule:nonzero;stroke:none" /><path
       d="m 462.498,169.704 82,0 0,82 -82,0 0,-82 z"
       id="path3001"
       style="fill:#ebebeb;fill-opacity:1;fill-rule:nonzero;stroke:none" /><path
       d="m 441.998,128.704 82,0"
       id="path3003"
       style="fill:none;stroke:#000000;stroke-width:0.99625999;stroke-linecap:round;stroke-linejoin:round;stroke-miterlimit:10;stroke-opacity:1;stroke-dasharray:none" /><path
       d="m 441.998,169.704 82,0"
       id="path3005"
       style="fill:none;stroke:#000000;stroke-width:0.99625999;stroke-linecap:round;stroke-linejoin:round;stroke-miterlimit:10;stroke-opacity:1;stroke-dasharray:none" /><path
       d="m 290.298,210.704 217.3,0"
       id="path3007"
       style="fill:none;stroke:#000000;stroke-width:0.99625999;stroke-linecap:round;stroke-linejoin:round;stroke-miterlimit:10;stroke-opacity:1;stroke-dasharray:none" /><path
       d="m 507.598,210.704 36.9,0"
       id="path3009"
       style="fill:none;stroke:#ffffff;stroke-width:1.99251997;stroke-linecap:round;stroke-linejoin:round;stroke-miterlimit:10;stroke-opacity:1;stroke-dasharray:none" /><path
       d="m 318.998,251.704 164,0"
       id="path3011"
       style="fill:none;stroke:#000000;stroke-width:0.99625999;stroke-linecap:round;stroke-linejoin:round;stroke-miterlimit:10;stroke-opacity:1;stroke-dasharray:none" /><path
       d="m 339.498,292.704 123,0"
       id="path3013"
       style="fill:none;stroke:#000000;stroke-width:0.99625999;stroke-linecap:round;stroke-linejoin:round;stroke-miterlimit:10;stroke-opacity:1;stroke-dasharray:none" /><path
       d="m 339.498,333.704 123,0"
       id="path3015"
       style="fill:none;stroke:#000000;stroke-width:0.99625999;stroke-linecap:round;stroke-linejoin:round;stroke-miterlimit:10;stroke-opacity:1;stroke-dasharray:none" /><path
       d="m 339.498,374.704 114.8,0"
       id="path3017"
       style="fill:none;stroke:#000000;stroke-width:0.99625999;stroke-linecap:round;stroke-linejoin:round;stroke-miterlimit:10;stroke-opacity:1;stroke-dasharray:none" /><path
       d="m 454.298,374.704 90.2,0"
       id="path3019"
       style="fill:none;stroke:#ffffff;stroke-width:1.99251997;stroke-linecap:round;stroke-linejoin:round;stroke-miterlimit:10;stroke-opacity:1;stroke-dasharray:none" /><path
       d="m 339.498,190.204 0,143.5"
       id="path3021"
       style="fill:none;stroke:#000000;stroke-width:0.99625999;stroke-linecap:round;stroke-linejoin:round;stroke-miterlimit:10;stroke-opacity:1;stroke-dasharray:none" /><path
       d="m 380.498,190.204 0,225.5"
       id="path3023"
       style="fill:none;stroke:#000000;stroke-width:0.99625999;stroke-linecap:round;stroke-linejoin:round;stroke-miterlimit:10;stroke-opacity:1;stroke-dasharray:none" /><path
       d="m 421.498,190.204 0,225.5"
       id="path3025"
       style="fill:none;stroke:#000000;stroke-width:0.99625999;stroke-linecap:round;stroke-linejoin:round;stroke-miterlimit:10;stroke-opacity:1;stroke-dasharray:none" /><path
       d="m 462.498,128.704 0,205"
       id="path3027"
       style="fill:none;stroke:#000000;stroke-width:0.99625999;stroke-linecap:round;stroke-linejoin:round;stroke-miterlimit:10;stroke-opacity:1;stroke-dasharray:none" /><path
       d="m 462.498,333.704 0,82"
       id="path3029"
       style="fill:none;stroke:#ffffff;stroke-width:1.99251997;stroke-linecap:round;stroke-linejoin:round;stroke-miterlimit:10;stroke-opacity:1;stroke-dasharray:none" /><path
       d="m 503.498,108.204 0,123"
       id="path3031"
       style="fill:none;stroke:#000000;stroke-width:0.99625999;stroke-linecap:round;stroke-linejoin:round;stroke-miterlimit:10;stroke-opacity:1;stroke-dasharray:none" /><path
       d="m 503.498,231.204 0,20.5"
       id="path3033"
       style="fill:none;stroke:#ffffff;stroke-width:1.99251997;stroke-linecap:round;stroke-linejoin:round;stroke-miterlimit:10;stroke-opacity:1;stroke-dasharray:none" /><path
       d="m 286.498,199.704 c 0,31.556 31.55,50.863 44,79 10.878,24.584 6,52.255 6,79 0,33.884 26.493,62 60,62 33.507,0 60,-28.116 60,-62 0,-33.37 5.651,-66.885 22,-96 19.551,-34.818 54,-63.534 54,-104 0,-26.372 -15.62,-51 -40,-51 -17.209,0 -29.659,16.434 -25,33"
       id="path3035"
       style="fill:none;stroke:#000000;stroke-width:11.95510006;stroke-linecap:round;stroke-linejoin:round;stroke-miterlimit:10;stroke-opacity:1;stroke-dasharray:none" /><path
       d="m 467.498,124.704 c -7.432,2.342 -15,-3.208 -15,-11 0,-12.502 7.15,-23.686 9,-36.0001 2.152,-14.325 -3,-28.559 -3,-43 0,-7.2453 7.209,-12 15,-12 12.462,0 20.704,11.3039 31,18 8.937,5.8117 19.544,8.0231 30,10 11.716,2.2149 24,7.0699 24,18 0,9.9859 -12.554,11.9609 -20,18 -6.516,5.284 -8.93,14.1391 -6,22.0001"
       id="path3037"
       style="fill:none;stroke:#000000;stroke-width:11.95510006;stroke-linecap:round;stroke-linejoin:round;stroke-miterlimit:10;stroke-opacity:1;stroke-dasharray:none" /><path
       d="m 184.821,125.496 c 0,18.816 -12.416,30.977 -33.28,30.977 l -18.688,0 c -11.52,0 -14.336,-4.481 -14.336,-14.593 l 0,-62.8484 c 0,-9.8558 3.328,-14.741 10.368,-14.741 7.04,0 10.368,4.8852 10.368,14.741 l 0,15.6161 13.952,0 c 20.096,0 31.616,11.7763 31.616,30.8483"
       id="path3039"
       style="fill:#000000;fill-opacity:1;fill-rule:nonzero;stroke:none" /><path
       d="m 162.421,125.496 c 0,-7.935 -4.736,-12.032 -14.208,-12.032 l -8.96,0 0,23.936 8.96,0 c 9.6,0 14.208,-3.712 14.208,-11.904"
       id="path3041"
       style="fill:#ffffff;fill-opacity:1;fill-rule:nonzero;stroke:none" /><path
       d="m 249.479,75.0637 c 0,6.5281 -4.864,9.6 -14.72,9.6 l -20.37,0 0,58.2413 c 0,9.855 -3.328,14.72 -10.368,14.72 -7.04,0 -10.368,-4.865 -10.368,-14.72 l 0,-64.3851 c 0,-9.8551 3.072,-13.0562 14.08,-13.0562 l 27.026,0 c 9.857,0 14.72,3.0722 14.72,9.6"
       id="path3043"
       style="fill:#000000;fill-opacity:1;fill-rule:nonzero;stroke:none" /><path
       d="m 329.352,104.504 0,38.401 c 0,9.855 -3.328,14.72 -10.368,14.72 -7.04,0 -10.368,-4.865 -10.368,-14.72 l 0,-36.097 c 0,-16.1271 -6.272,-24.1924 -18.304,-24.1924 -12.033,0 -18.304,8.0641 -18.304,24.1924 l 0,36.097 c 0,9.855 -3.328,14.72 -10.368,14.72 -7.041,0 -10.368,-4.865 -10.368,-14.72 l 0,-38.401 c 0,-27.1352 15.231,-41.7493 39.04,-41.7493 23.808,0 39.04,14.6133 39.04,41.7493"
       id="path3045"
       style="fill:#000000;fill-opacity:1;fill-rule:nonzero;stroke:none" /><path
       d="m 423.628,106.424 c 0,9.985 -4.258,13.824 -14.151,13.824 l -14.902,0 c -9.518,0 -14.277,-2.944 -14.277,-9.728 0,-6.784 4.759,-9.6 14.277,-9.6 l 7.138,0 c -0.25,-11.2641 -7.389,-18.3044 -18.033,-18.3044 -13.275,0 -22.292,10.8801 -22.292,28.8004 0,17.536 8.767,27.904 22.417,27.904 12.273,0 18.785,-8.832 24.796,-8.832 4.759,0 8.641,4.608 8.641,9.728 0,8.96 -14.725,18.944 -32.811,18.944 -27.3,0 -44.958,-18.56 -44.958,-48.128 0,-28.9281 17.908,-48.2773 42.579,-48.2773 25.422,0 41.576,18.325 41.576,43.6693"
       id="path3047"
       style="fill:#000000;fill-opacity:1;fill-rule:nonzero;stroke:none" /><path
       d="m 3.49805,65.7039 90,0 0,90 -90,0 0,-90 z"
       id="path3049"
       style="fill:#ff8050;fill-opacity:1;fill-rule:nonzero;stroke:none" /><path
       d="m 40.3551,40.0988 -4.5121,0 L 31.8949,27.018 C 31.216,24.7969 29.366,18.6887 29.057,16.0367 l -0.0609,0 c -0.2469,1.9129 -1.7891,7.4031 -2.8379,10.9199 l -4.0102,13.143 -4.3179,0 -3.516,-11.6 c -0.6789,-2.159 -2.7762,-9.2539 -3.0231,-12.4 l -0.0609,0 c -0.309,2.9613 -2.34494,9.932 -3.33205,13.325 l -3.20782,10.675 -4.68827687,0 L 8.45391,12.702 l 4.87309,0 c 0.3082,0.9878 2.4679,7.9058 3.825,12.7238 0.864,2.841 2.591,8.957 2.7761,11.2422 l 0.0621,0 c 0.1227,-1.7293 1.1719,-5.991 1.9739,-8.6481 l 4.5039,-15.3179 5.4289,0"
       id="path3051"
       style="fill:#000000;fill-opacity:1;fill-rule:nonzero;stroke:none" /><path
       d="m 82.5551,40.0988 -4.5121,0 L 74.0949,27.018 C 73.416,24.7969 71.566,18.6887 71.257,16.0367 l -0.0609,0 c -0.2469,1.9129 -1.7891,7.4031 -2.8379,10.9199 l -4.0102,13.143 -4.3179,0 -3.516,-11.6 c -0.6789,-2.159 -2.7762,-9.2539 -3.0231,-12.4 l -0.0609,0 c -0.309,2.9613 -2.3449,9.932 -3.3321,13.325 l -3.2078,10.675 -4.6882,0 8.4519,-27.3976 4.8731,0 c 0.3082,0.9878 2.4679,7.9058 3.825,12.7238 0.864,2.841 2.591,8.957 2.7761,11.2422 l 0.0621,0 c 0.1227,-1.7293 1.1719,-5.991 1.9739,-8.6481 l 4.5039,-15.3179 5.4289,0"
       id="path3053"
       style="fill:#000000;fill-opacity:1;fill-rule:nonzero;stroke:none" /><path
       d="m 124.755,40.0988 -4.512,0 -3.948,-13.0808 c -0.679,-2.2211 -2.529,-8.3293 -2.838,-10.9813 l -0.061,0 c -0.247,1.9129 -1.789,7.4031 -2.838,10.9199 l -4.01,13.143 -4.318,0 -3.5159,-11.6 c -0.6789,-2.159 -2.7762,-9.2539 -3.0231,-12.4 l -0.0609,0 c -0.309,2.9613 -2.3449,9.932 -3.3321,13.325 l -3.2078,10.675 -4.6882,0 8.4519,-27.3976 4.8731,0 c 0.3082,0.9878 2.468,7.9058 3.825,12.7238 0.864,2.841 2.591,8.957 2.776,11.2422 l 0.062,0 c 0.123,-1.7293 1.172,-5.991 1.974,-8.6481 l 4.504,-15.3179 5.429,0"
       id="path3055"
       style="fill:#000000;fill-opacity:1;fill-rule:nonzero;stroke:none" /><path
       d="m 131.705,12.7008 5.09453,0 0,5.09453 -5.09453,0 0,-5.09453 z"
       id="path3057"
       style="fill:#000000;fill-opacity:1;fill-rule:nonzero;stroke:none" /><path
       d="m 147.901,12.7008 4.59492,0 0,42.898 -4.59492,0 0,-42.898 z"
       id="path3059"
       style="fill:#000000;fill-opacity:1;fill-rule:nonzero;stroke:none" /><path
       d="m 167.666,54.6988 -5.498,0 0,-5.4941 5.498,0 0,5.4941 z m -0.47,-14.6 -4.595,0 0,-27.398 4.595,0"
       id="path3061"
       style="fill:#000000;fill-opacity:1;fill-rule:nonzero;stroke:none" /><path
       d="m 199.294,31.1027 c 0,4.0762 -0.928,9.6981 -8.473,9.6981 -5.566,0 -8.596,-4.202 -8.967,-4.6961 l 0,4.384 -4.453,0 0,-27.7891 4.795,0 0,15.1113 c 0,4.0707 1.553,9.1938 6.275,9.1938 5.964,0 6.029,-4.3828 6.029,-6.357 l 0,-17.9481 4.795,0"
       id="path3063"
       style="fill:#000000;fill-opacity:1;fill-rule:nonzero;stroke:none" /><path
       d="m 231.194,40.0988 -4.795,0 0,-17.909 c 0,-4.63 -3.481,-6.791 -7.457,-6.791 -4.411,0 -4.846,1.6051 -4.846,4.2598 l 0,20.441 -4.795,0 0,-20.6879 c 0,-4.4449 1.423,-7.409 6.555,-7.409 3.278,0 7.668,0.9879 10.699,3.643 l 0,-2.9641 4.639,0"
       id="path3065"
       style="fill:#000000;fill-opacity:1;fill-rule:nonzero;stroke:none" /><path
       d="m 252.259,26.8289 11.284,13.2699 -5.057,0 -8.263,-10.1652 -8.509,10.1652 -5.118,0 11.593,-13.2699 -11.962,-14.1281 5.056,0 8.941,11.6129 9.25,-11.6117 5.122,0"
       id="path3067"
       style="fill:#000000;fill-opacity:1;fill-rule:nonzero;stroke:none" /><path
       d="m 270.705,12.7008 5.09453,0 0,5.09453 -5.09453,0 0,-5.09453 z"
       id="path3069"
       style="fill:#000000;fill-opacity:1;fill-rule:nonzero;stroke:none" /><path
       d="m 310.894,26.2879 c 0,8.2867 -6.173,14.9109 -13.518,14.9109 -7.592,0 -13.579,-6.8101 -13.579,-14.9109 0,-8.1641 6.296,-14.2859 13.517,-14.2859 7.407,0 13.58,6.2457 13.58,14.2859 z m -13.58,-10.2902 c -4.268,0 -8.722,3.4543 -8.722,10.9171 0,7.4629 4.701,10.4891 8.722,10.4891 4.33,0 8.786,-3.2109 8.786,-10.4891 0,-7.2781 -4.208,-10.9171 -8.786,-10.9171"
       id="path3071"
       style="fill:#000000;fill-opacity:1;fill-rule:nonzero;stroke:none" /><path
       d="m 320.692,25.9156 c 0,6.175 4.448,10.6211 10.505,10.7453 l 0,4.1411 c -5.487,-0.0653 -8.877,-3.0911 -10.786,-5.9321 l 0,5.6199 -4.313,0 0,-27.789 4.595,0"
       id="path3073"
       style="fill:#000000;fill-opacity:1;fill-rule:nonzero;stroke:none" /><path
       d="m 353.841,36.8527 c 1.359,0 3.088,0.2469 4.571,0.2469 1.112,0 3.521,-0.1848 3.645,-0.1848 l -0.686,3.8872 c -4.328,0 -7.914,-1.1743 -9.769,-1.9774 -1.298,1.05 -3.401,1.9774 -5.874,1.9774 -5.317,0 -9.83,-4.4473 -9.83,-10.0641 0,-2.284 0.803,-4.5051 2.038,-6.1109 -1.791,-2.5301 -1.791,-4.9372 -1.791,-5.2461 0,-1.6051 0.556,-3.395 1.606,-4.6911 -3.192,-1.914 -3.922,-4.75308 -3.922,-6.35816 0,-4.62891 6.115,-8.332030625 13.651,-8.332030625 7.597,0 13.716,3.646090625 13.716,8.405080625 0,8.59101 -10.319,8.59101 -12.728,8.59101 l -5.436,0 c -0.803,0 -3.582,0 -3.582,3.2539 0,0.675 0.246,1.657 0.678,2.2113 1.295,-0.9101 3.329,-1.7589 5.609,-1.7589 5.547,0 9.865,4.5617 9.865,10.0476 0,2.959 -1.337,5.2402 -2.006,6.1652 l 0.245,-0.0621 z m -8.125,-12.6558 c -2.296,0 -5.524,1.4219 -5.524,6.5539 0,5.132 3.228,6.5539 5.524,6.5539 2.669,0 5.588,-1.732 5.588,-6.5539 0,-4.8231 -2.919,-6.5539 -5.588,-6.5539 z m 2.83,-11.6973 c 1.361,0 8.354,0 8.354,-4.25585 0,-2.71289 -4.27,-4.74805 -9.343,-4.74805 -5.012,0 -9.405,1.91211 -9.405,4.81016 0,0.18477 0,4.19494 4.826,4.19494"
       id="path3075"
       style="fill:#000000;fill-opacity:1;fill-rule:nonzero;stroke:none" /><path
       d="m 369.005,12.7008 5.09453,0 0,5.09453 -5.09453,0 0,-5.09453 z"
       id="path3077"
       style="fill:#000000;fill-opacity:1;fill-rule:nonzero;stroke:none" /><path
       d="m 389.993,15.5418 c 1.909,-1.802 4.618,-3.5398 8.312,-3.5398 5.973,0 11.392,6.0558 11.392,14.4609 0,7.416 -3.882,14.3391 -9.79,14.3391 -3.693,0 -7.262,-1.2993 -10.093,-3.709 l 0,3.0269 -4.616,0 0,-39.417947 4.795,0 0,14.839847 z m 0,17.6891 c 1.479,2.1558 3.881,3.575 6.53,3.575 4.682,0 8.38,-4.684 8.38,-10.3512 0,-6.3449 -4.375,-10.657 -8.996,-10.657 -2.403,0 -4.066,1.232 -5.298,2.8953 -0.616,0.9238 -0.616,1.0476 -0.616,2.1558"
       id="path3079"
       style="fill:#000000;fill-opacity:1;fill-rule:nonzero;stroke:none" /><path
       d="m 417.101,12.7008 4.59492,0 0,42.898 -4.59492,0 0,-42.898 z"
       id="path3081"
       style="fill:#000000;fill-opacity:1;fill-rule:nonzero;stroke:none" /></g></svg>