<?xml version="1.0" encoding="utf-8"?>
<!-- Generator: Adobe Illustrator 24.0.0, SVG Export Plug-In . SVG Version: 6.00 Build 0)  -->
<svg version="1.1" id="Warstwa_1" xmlns="http://www.w3.org/2000/svg" xmlns:xlink="http://www.w3.org/1999/xlink" x="0px" y="0px"
	 viewBox="0 0 481.89 155.91" style="enable-background:new 0 0 481.89 155.91;" xml:space="preserve">
<style type="text/css">
	.st0{fill:#E30613;}
	.st1{fill:#FFFFFF;}
	.st2{fill:#7C7C7B;}
</style>
<g>
	<polygon class="st0" points="26.04,115.02 37.74,116.46 29.44,87.27 	"/>
	<polygon class="st0" points="111.58,38.94 76.97,34.69 89.92,80.27 	"/>
	<polygon class="st0" points="73.33,76.82 51.66,118.17 111.34,125.49 119.5,59.01 86.28,122.4 	"/>
	<polygon class="st0" points="66.84,54 76.93,34.68 36.51,29.72 34.15,48.91 46.59,92.66 	"/>
	<polygon class="st1" points="76.95,34.64 76.93,34.68 76.97,34.69 	"/>
</g>
<g>
	<g>
		<path d="M150.42,50.47l12.96,33.26l13.54-35.68l12.96,35.68l13.76-33.26h8.15l-22.24,52.92l-12.8-35.26l-13.34,35.29l-21.14-52.95
			H150.42z"/>
		<path d="M244.29,57.53h-19.95v11.96h19.37v7.06h-19.37v16.63h19.95v7.06h-27.46V50.47h27.46V57.53z"/>
		<path d="M289.13,53.14v8.9c-4.34-3.63-8.83-5.45-13.47-5.45c-5.11,0-9.42,1.84-12.92,5.51c-3.52,3.65-5.29,8.12-5.29,13.41
			c0,5.22,1.76,9.63,5.29,13.21c3.52,3.59,7.84,5.38,12.96,5.38c2.64,0,4.89-0.43,6.74-1.29c1.03-0.43,2.1-1.01,3.21-1.74
			c1.11-0.73,2.27-1.61,3.5-2.64v9.06c-4.3,2.43-8.81,3.64-13.54,3.64c-7.11,0-13.18-2.48-18.21-7.45
			c-5.01-5.01-7.51-11.04-7.51-18.11c0-6.34,2.09-11.99,6.28-16.95c5.16-6.08,11.83-9.12,20.02-9.12
			C280.64,49.5,284.96,50.71,289.13,53.14z"/>
		<path d="M327.78,88.14h-21.3l-5.54,12.09h-8.09l24.62-52.89l23.75,52.89H333L327.78,88.14z M324.71,81.09l-7.38-16.92l-7.74,16.92
			H324.71z"/>
		<path d="M345.7,100.23l10.47-53.5l17.08,38.68l17.69-38.68l9.41,53.5h-7.7l-4.8-30.04l-14.73,32.33l-14.31-32.36l-5.35,30.07
			H345.7z"/>
		<path d="M403.83,75.12c0-7,2.57-13.02,7.7-18.05c5.11-5.03,11.26-7.54,18.44-7.54c7.09,0,13.17,2.54,18.24,7.61
			c5.09,5.07,7.64,11.16,7.64,18.27c0,7.16-2.56,13.23-7.67,18.21c-5.14,5.01-11.33,7.51-18.6,7.51c-6.42,0-12.19-2.22-17.31-6.67
			C406.65,89.54,403.83,83.1,403.83,75.12z M411.41,75.22c0,5.5,1.85,10.02,5.54,13.57c3.67,3.55,7.92,5.32,12.73,5.32
			c5.22,0,9.63-1.81,13.21-5.42c3.59-3.65,5.38-8.1,5.38-13.34c0-5.31-1.77-9.75-5.32-13.34c-3.52-3.61-7.89-5.42-13.09-5.42
			c-5.18,0-9.55,1.81-13.12,5.42C413.19,65.57,411.41,69.98,411.41,75.22z"/>
	</g>
	<g>
		<path class="st2" d="M214.15,116.29l2.41,5.26l2.6-6.1l2.62,6.1l2.38-5.26h2.38l-4.82,9.9l-2.56-5.93l-2.59,5.93l-4.81-9.9H214.15
			z"/>
		<path class="st2" d="M248.62,121.39h-6.6c0.06,0.76,0.3,1.36,0.74,1.81c0.43,0.44,0.99,0.66,1.67,0.66c0.53,0,0.97-0.13,1.31-0.38
			c0.34-0.25,0.73-0.72,1.16-1.4l1.8,1c-0.28,0.47-0.57,0.88-0.88,1.21c-0.31,0.34-0.64,0.61-0.99,0.83
			c-0.35,0.22-0.73,0.38-1.14,0.48c-0.41,0.1-0.85,0.15-1.33,0.15c-1.37,0-2.48-0.44-3.31-1.32c-0.83-0.89-1.25-2.07-1.25-3.54
			c0-1.46,0.4-2.63,1.21-3.54c0.81-0.89,1.89-1.33,3.23-1.33c1.35,0,2.43,0.43,3.21,1.29c0.78,0.86,1.17,2.04,1.17,3.56
			L248.62,121.39z M246.43,119.65c-0.3-1.13-1.01-1.7-2.15-1.7c-0.26,0-0.5,0.04-0.73,0.12c-0.23,0.08-0.43,0.19-0.62,0.34
			c-0.19,0.15-0.35,0.33-0.48,0.53c-0.13,0.21-0.23,0.44-0.3,0.71H246.43z"/>
		<path class="st2" d="M289.25,116.68v2.83c-0.49-0.59-0.92-1-1.3-1.22c-0.38-0.23-0.82-0.34-1.33-0.34c-0.8,0-1.46,0.28-1.99,0.84
			c-0.53,0.56-0.79,1.26-0.79,2.11c0,0.86,0.26,1.57,0.77,2.13c0.52,0.55,1.18,0.83,1.98,0.83c0.51,0,0.96-0.11,1.35-0.33
			c0.38-0.21,0.82-0.63,1.33-1.25v2.81c-0.86,0.45-1.73,0.67-2.59,0.67c-1.42,0-2.62-0.46-3.57-1.38c-0.96-0.93-1.44-2.08-1.44-3.45
			s0.49-2.53,1.46-3.48c0.97-0.95,2.16-1.42,3.57-1.42C287.58,116.03,288.44,116.25,289.25,116.68z"/>
		<path class="st2" d="M310.9,116.29h2.14v9.21h-2.14v-0.96c-0.88,0.82-1.82,1.23-2.83,1.23c-1.27,0-2.33-0.46-3.16-1.38
			c-0.83-0.94-1.24-2.11-1.24-3.52c0-1.38,0.41-2.53,1.24-3.45s1.86-1.38,3.1-1.38c1.07,0,2.03,0.44,2.88,1.32V116.29z
			 M305.85,120.86c0,0.88,0.24,1.6,0.71,2.16c0.49,0.56,1.1,0.84,1.83,0.84c0.79,0,1.42-0.27,1.91-0.81
			c0.49-0.56,0.73-1.27,0.73-2.14s-0.24-1.58-0.73-2.14c-0.49-0.55-1.12-0.82-1.89-0.82c-0.73,0-1.34,0.28-1.83,0.83
			C306.09,119.34,305.85,120.04,305.85,120.86z"/>
		<path class="st2" d="M328.37,116.29h2.14v0.85c0.74-0.74,1.58-1.11,2.51-1.11c1.07,0,1.91,0.34,2.5,1.01
			c0.52,0.57,0.77,1.51,0.77,2.81v5.64h-2.14v-5.14c0-0.91-0.13-1.53-0.38-1.88c-0.25-0.35-0.69-0.53-1.34-0.53
			c-0.71,0-1.21,0.23-1.5,0.7c-0.29,0.46-0.43,1.26-0.43,2.41v4.44h-2.14V116.29z"/>
		<path class="st2" d="M370.13,116.29h2.13v0.85c0.41-0.43,0.76-0.72,1.05-0.87c0.31-0.16,0.7-0.24,1.16-0.24
			c1.04,0,1.86,0.45,2.47,1.36c0.67-0.91,1.57-1.36,2.71-1.36c2.07,0,3.11,1.26,3.11,3.77v5.69h-2.14v-5.11
			c0-0.88-0.11-1.51-0.32-1.87c-0.22-0.37-0.58-0.56-1.09-0.56c-0.59,0-1.01,0.22-1.28,0.66c-0.27,0.44-0.4,1.15-0.4,2.13v4.75
			h-2.14v-5.08c0-1.64-0.47-2.46-1.42-2.46c-0.6,0-1.04,0.22-1.31,0.67c-0.27,0.45-0.41,1.15-0.41,2.12v4.75h-2.13V116.29z"/>
		<path class="st2" d="M397.57,120.82c0-1.33,0.48-2.46,1.43-3.39c0.95-0.93,2.11-1.4,3.48-1.4c1.37,0,2.54,0.47,3.5,1.41
			c0.95,0.94,1.42,2.09,1.42,3.46c0,1.38-0.48,2.54-1.43,3.47c-0.96,0.93-2.13,1.39-3.53,1.39c-1.38,0-2.54-0.47-3.47-1.42
			C398.03,123.41,397.57,122.24,397.57,120.82z M399.74,120.86c0,0.92,0.25,1.65,0.74,2.18c0.5,0.54,1.17,0.81,2,0.81
			c0.83,0,1.5-0.27,1.99-0.8c0.5-0.54,0.75-1.25,0.75-2.15c0-0.9-0.25-1.61-0.75-2.15c-0.5-0.54-1.17-0.81-1.99-0.81
			c-0.81,0-1.47,0.27-1.98,0.81C399.99,119.31,399.74,120.01,399.74,120.86z"/>
		<path class="st2" d="M422.23,116.29h2.13v0.82c0.39-0.41,0.74-0.69,1.04-0.84c0.31-0.16,0.67-0.24,1.1-0.24
			c0.56,0,1.15,0.18,1.76,0.55l-0.97,1.95c-0.4-0.29-0.8-0.43-1.18-0.43c-1.16,0-1.74,0.88-1.74,2.63v4.77h-2.13V116.29z"/>
		<path class="st2" d="M450.28,121.39h-6.6c0.06,0.76,0.3,1.36,0.74,1.81c0.43,0.44,0.99,0.66,1.67,0.66c0.53,0,0.97-0.13,1.31-0.38
			c0.34-0.25,0.73-0.72,1.16-1.4l1.8,1c-0.28,0.47-0.57,0.88-0.88,1.21c-0.31,0.34-0.64,0.61-0.99,0.83
			c-0.35,0.22-0.73,0.38-1.14,0.48c-0.41,0.1-0.85,0.15-1.33,0.15c-1.37,0-2.48-0.44-3.31-1.32c-0.83-0.89-1.25-2.07-1.25-3.54
			c0-1.46,0.4-2.63,1.21-3.54c0.81-0.89,1.89-1.33,3.23-1.33c1.35,0,2.43,0.43,3.21,1.29c0.78,0.86,1.17,2.04,1.17,3.56
			L450.28,121.39z M448.1,119.65c-0.3-1.13-1.01-1.7-2.15-1.7c-0.26,0-0.5,0.04-0.73,0.12c-0.23,0.08-0.43,0.19-0.62,0.34
			c-0.19,0.15-0.35,0.33-0.48,0.53c-0.13,0.21-0.23,0.44-0.3,0.71H448.1z"/>
	</g>
</g>
</svg>
