<svg xmlns="http://www.w3.org/2000/svg" xml:space="preserve" viewBox="0 0 1229.987 346.599"><defs><path id="a" d="M261.602 324.775h736.327v56.816H261.602z"/></defs><path d="M277.063 829.186h22.788c.22 4.472 1.896 7.822 5.026 10.053 3.35 2.236 7.817 3.352 13.404 3.352 4.02 0 7.482-.78 10.389-2.346 2.68-1.56 4.02-3.687 4.02-6.367 0-4.02-4.69-7.037-14.073-9.048-4.021-.67-7.038-1.34-9.048-2.01-11.844-2.9-19.771-6.368-23.792-10.39-4.472-4.02-6.702-9.383-6.702-16.085 0-8.487 3.236-15.524 9.718-21.11 6.702-5.138 15.415-7.709 26.138-7.709 11.614 0 20.887 2.571 27.814 7.708 6.477 5.587 9.938 12.85 10.388 21.781h-14.41c-4.246 0-7.487-1.896-9.717-5.696a677.67 677.67 0 0 1-2.681-2.68c-2.681-2.012-6.367-3.018-11.06-3.018-4.47 0-7.821.671-10.052 2.011-2.01 1.341-3.016 3.352-3.016 6.032 0 3.576 5.807 6.592 17.425 9.048 1.34.45 2.514.785 3.519 1.005 1.005.226 1.953.335 2.848.335 11.394 2.906 19.32 6.258 23.792 10.054 4.24 4.021 6.367 9.383 6.367 16.085 0 9.834-3.576 17.426-10.723 22.787-6.702 4.917-16.755 7.373-30.16 7.373-12.734 0-22.232-2.565-28.484-7.708-6.482-5.137-9.718-12.618-9.718-22.452v-1.005zM430.408 831.197h16.755c-2.461 9.383-7.153 16.535-14.075 21.446-6.927 5.143-15.64 7.708-26.138 7.708-12.734 0-22.678-4.132-29.825-12.399-7.152-8.042-10.724-19.546-10.724-34.516 0-14.295 3.46-25.469 10.389-33.51 7.147-8.264 17.09-12.4 29.824-12.4 13.404 0 23.793 4.021 31.165 12.063 7.147 8.27 10.724 19.771 10.724 34.517V817.793c0 1.12-.115 1.9-.335 2.346h-57.974c.22 6.927 1.895 12.063 5.026 15.415 2.9 3.576 7.257 5.361 13.069 5.361 3.796 0 7.037-.78 9.718-2.346.67-.22 1.283-.612 1.843-1.173l1.843-1.843c.22-.67 1.058-1.56 2.513-2.682 1.453-1.115 3.52-1.674 6.202-1.674zm-40.213-26.139h34.18c-.45-6.032-2.01-10.498-4.69-13.404-2.906-3.126-7.037-4.69-12.4-4.69-4.916 0-8.937 1.564-12.063 4.69-3.132 3.13-4.807 7.597-5.027 13.404zM458.758 829.186h22.788c.22 4.472 1.896 7.822 5.026 10.053 3.35 2.236 7.817 3.352 13.404 3.352 4.02 0 7.482-.78 10.389-2.346 2.68-1.56 4.02-3.687 4.02-6.367 0-4.02-4.69-7.037-14.073-9.048-4.021-.67-7.038-1.34-9.048-2.01-11.844-2.9-19.771-6.368-23.792-10.39-4.472-4.02-6.702-9.383-6.702-16.085 0-8.487 3.236-15.524 9.718-21.11 6.702-5.138 15.415-7.709 26.138-7.709 11.614 0 20.887 2.571 27.814 7.708 6.477 5.587 9.938 12.85 10.388 21.781h-14.41c-4.247 0-7.488-1.896-9.718-5.696a677.67 677.67 0 0 1-2.681-2.68c-2.681-2.012-6.367-3.018-11.06-3.018-4.47 0-7.821.671-10.052 2.011-2.01 1.341-3.016 3.352-3.016 6.032 0 3.576 5.807 6.592 17.425 9.048 1.34.45 2.514.785 3.519 1.005 1.005.226 1.953.335 2.848.335 11.394 2.906 19.32 6.258 23.792 10.054 4.24 4.021 6.367 9.383 6.367 16.085 0 9.834-3.576 17.426-10.723 22.787-6.702 4.917-16.755 7.373-30.16 7.373-12.734 0-22.232-2.565-28.484-7.708-6.482-5.137-9.718-12.618-9.718-22.452v-1.005zM542.4 895.872v-19.437h4.357c2.01 0 3.35-.56 4.02-1.676.89-.67 1.34-2.126 1.34-4.356V769.536h12.065c3.126 0 5.807 1.12 8.042 3.351 2.23 2.236 3.35 4.917 3.35 8.043v93.16c0 7.592-2.235 13.18-6.701 16.755-4.472 3.352-11.844 5.027-22.117 5.027H542.4zm9.719-152.474h12.064c3.126 0 5.807 1.121 8.042 3.352 2.23 2.235 3.35 4.916 3.35 8.042v7.038h-23.457v-18.432zM646.15 854.99a41.247 41.247 0 0 1-14.912 4.523c-5.252.555-9.886.838-13.907.838-8.042 0-15.08-2.179-21.112-6.535-6.032-4.356-9.048-11.56-9.048-21.614 0-9.383 2.733-16.085 8.21-20.106 5.472-4.02 12.45-6.702 20.944-8.043 1.115 0 2.456-.167 4.02-.502 1.562-.335 3.352-.613 5.363-.838 9.828-1.34 14.745-4.24 14.745-8.713 0-3.352-1.733-5.529-5.194-6.534-3.466-1.006-6.65-1.509-9.55-1.509-3.131 0-5.922.45-8.378 1.341-2.461.896-4.246 2.571-5.362 5.026h-22.452c.89-6.922 4.02-12.619 9.383-17.09 6.032-5.137 14.629-7.708 25.803-7.708 12.509 0 21.892 2.126 28.149 6.367 6.477 4.472 9.718 10.724 9.718 18.766v30.495c0 8.938-1.623 15.918-4.86 20.944-3.24 5.026-7.093 8.66-11.56 10.891zm-5.361-41.219c-3.131 1.565-7.487 3.016-13.07 4.356l-7.707 1.676c-4.021 1.12-6.927 2.57-8.713 4.356-1.565 2.461-2.346 4.916-2.346 7.372 0 3.351 1.005 6.032 3.016 8.042 2.01 1.791 4.912 2.682 8.713 2.682 6.252 0 11.168-1.786 14.745-5.362 3.57-3.57 5.36-8.487 5.36-14.744v-8.378z" style="fill:#429096;fill-opacity:1" transform="translate(1.75 -723.398)"/><path d="M261.016 876.162h12.064c3.126 0 5.807 1.063 8.042 3.184 2.23 2.126 3.351 4.749 3.351 7.875V991.44h-23.458V876.162zM296.834 876.162h12.064c3.125 0 5.806 1.12 8.042 3.352 2.23 2.235 3.351 4.916 3.351 8.042v7.038h-23.457v-18.432zm0 26.138h12.064c3.125 0 5.806 1.12 8.042 3.35 2.23 2.237 3.351 4.918 3.351 8.044v77.745h-23.457v-89.14zM409.871 991.439h-11.729c-3.352 0-6.09-1.058-8.21-3.184-2.126-2.12-3.184-4.86-3.184-8.21V934.47c0-5.361-1.624-9.268-4.859-11.73-3.24-2.454-6.87-3.685-10.892-3.685-4.02 0-7.597 1.23-10.723 3.686-3.132 2.46-4.69 6.367-4.69 11.729v56.969h-23.459v-52.276c0-15.19 3.964-25.354 11.896-30.495 7.927-5.137 16.697-7.928 26.306-8.378 9.828 0 18.876 2.57 27.144 7.708 8.263 5.142 12.4 15.529 12.4 31.165v52.276zM499.881 902.3v52.276c0 15.865-4.137 26.254-12.399 31.165-8.268 4.917-17.315 7.373-27.144 7.373-9.608-.45-18.379-3.126-26.306-8.043-7.933-4.911-11.896-15.08-11.896-30.495V902.3h23.458v56.969c0 5.36 1.56 9.272 4.691 11.729 3.126 2.46 6.702 3.686 10.723 3.686 4.021 0 7.65-1.225 10.892-3.686 3.235-2.456 4.86-6.367 4.86-11.73v-45.574c0-3.126 1.057-5.807 3.182-8.043 2.121-2.23 4.86-3.351 8.211-3.351h11.728zM536.73 902.3v32.84l28.482-32.84h28.15l-31.836 34.18 32.17 54.959h-28.149l-16.42-30.16c-3.35-6.031-6.257-8.597-8.713-7.707-2.46.896-3.686 2.235-3.686 4.02v33.846H513.27V876.162h12.063c3.126 0 5.808 1.12 8.043 3.352 2.23 2.235 3.352 4.807 3.352 7.707V902.3zM599.786 961.95h22.787c.22 4.472 1.896 7.822 5.027 10.053 3.35 2.236 7.817 3.352 13.404 3.352 4.02 0 7.482-.78 10.388-2.346 2.68-1.561 4.02-3.687 4.02-6.367 0-4.021-4.69-7.037-14.073-9.048-4.021-.67-7.037-1.341-9.048-2.011-11.845-2.9-19.771-6.367-23.793-10.39-4.472-4.02-6.702-9.382-6.702-16.084 0-8.487 3.236-15.524 9.718-21.111 6.702-5.137 15.415-7.708 26.139-7.708 11.613 0 20.887 2.57 27.814 7.708 6.477 5.587 9.938 12.849 10.388 21.78h-14.41c-4.246 0-7.486-1.895-9.718-5.695-.895-.891-1.79-1.786-2.681-2.681-2.681-2.011-6.367-3.017-11.06-3.017-4.471 0-7.821.67-10.052 2.01-2.011 1.342-3.017 3.353-3.017 6.033 0 3.576 5.808 6.592 17.426 9.048 1.34.45 2.514.785 3.519 1.005 1.006.226 1.953.335 2.849.335 11.394 2.906 19.32 6.258 23.793 10.054 4.24 4.02 6.367 9.383 6.367 16.085 0 9.834-3.576 17.426-10.724 22.787-6.702 4.917-16.756 7.373-30.16 7.373-12.733 0-22.232-2.565-28.484-7.708-6.481-5.137-9.718-12.618-9.718-22.452v-1.005zM703.319 983.396c-4.691-4.021-8.043-9.435-10.054-16.252-2.01-6.812-3.016-13.907-3.016-21.28 0-6.031.838-12.063 2.514-18.096 1.675-6.031 4.299-11.06 7.875-15.08 5.807-6.701 13.289-10.665 22.452-11.895 9.157-1.226 17.426-.503 24.798 2.178 8.487 3.352 14.745 9.163 18.766 17.426 3.797 7.372 5.697 15.976 5.697 25.804 0 7.152-.785 13.294-2.346 18.43-1.565 5.143-3.576 9.499-6.032 13.07-5.361 7.372-12.179 11.954-20.441 13.739-7.372 2.01-14.803 2.178-22.284.503-7.488-1.677-13.462-4.525-17.929-8.547zm16.085-58.978c-4.691 5.142-6.817 12.792-6.367 22.955.445 10.168 2.346 17.258 5.697 21.279 1.34 1.79 3.687 3.299 7.037 4.523 3.352 1.23 6.755 1.34 10.221.335 3.461-1.005 6.535-3.52 9.216-7.54 2.681-4.02 4.131-10.498 4.356-19.436 0-8.043-1.288-14.074-3.854-18.096-2.57-4.021-5.528-6.587-8.88-7.708-3.351-1.115-6.702-1.173-10.054-.167-3.35 1.006-5.811 2.294-7.372 3.855zM873.348 991.439h-23.457l-13.739-63.671-13.739 63.67h-23.458L774.492 902.3h22.787l14.075 61.66 12.733-61.66h23.793l12.063 61.66 12.4-53.617c1.34-5.362 4.91-8.043 10.723-8.043h14.744l-24.462 89.139zM962.64 987.753a41.252 41.252 0 0 1-14.914 4.524c-5.25.555-9.886.838-13.906.838-8.043 0-15.08-2.18-21.112-6.535-6.032-4.356-9.048-11.561-9.048-21.614 0-9.383 2.733-16.085 8.21-20.106 5.472-4.021 12.451-6.702 20.944-8.043 1.115 0 2.456-.167 4.021-.502 1.561-.335 3.351-.613 5.361-.838 9.828-1.341 14.745-4.241 14.745-8.713 0-3.352-1.733-5.53-5.194-6.534-3.466-1.006-6.649-1.51-9.55-1.51-3.132 0-5.923.45-8.378 1.342-2.46.896-4.247 2.57-5.362 5.026h-22.452c.891-6.922 4.021-12.62 9.383-17.09 6.032-5.137 14.63-7.708 25.804-7.708 12.51 0 21.892 2.126 28.15 6.367 6.476 4.472 9.717 10.724 9.717 18.766v30.495c0 8.938-1.623 15.918-4.859 20.944-3.242 5.026-7.096 8.66-11.56 10.89zm-5.364-41.218c-3.13 1.565-7.487 3.016-13.069 4.356l-7.707 1.676c-4.02 1.12-6.928 2.57-8.713 4.356-1.565 2.46-2.346 4.916-2.346 7.372 0 3.35 1.005 6.032 3.016 8.042 2.011 1.79 4.912 2.682 8.713 2.682 6.252 0 11.17-1.786 14.745-5.362 3.57-3.57 5.361-8.487 5.361-14.744v-8.378z" style="fill:#323f49;fill-opacity:1" transform="translate(1.75 -723.398)"/><g style="font-style:normal;font-variant:normal;font-weight:700;font-stretch:normal;font-size:1000px;line-height:125%;font-family:Harabara;-inkscape-font-specification:&quot;Harabara Bold&quot;;letter-spacing:0;word-spacing:0;fill:#dba100;fill-opacity:1;stroke:none"><path d="M502.312 289.577c-27.344 0-41.016 13.672-41.016 41.016v66.406h107.422V289.577h-66.406" style="fill:#429096;fill-opacity:1" transform="translate(-943.288 -560.497) scale(2.08822)"/></g><path d="M669.493 839.33s77.73-1.643 87.614 54.105H720.37s-1.406 22.956-7.073 32.791l-50.851-26.23v26.23s-46.654-8.202-48.063-50.831c-1.41-42.625 55.11-36.065 55.11-36.065z" style="fill:#efcc00;stroke:#000;stroke-width:.25" transform="matrix(.34689 0 0 .34689 904.748 -41.317)"/><path d="m741.172 874.399-29.897.093-3.228 31.152-50.236-22.996-5.897 22.996s-34.352-40.344 19.78-59.028c42.065-14.51 69.478 21.226 69.478 27.783" style="opacity:.82999998;fill:#fffffe" transform="matrix(.34689 0 0 .34689 904.748 -41.317)"/><path d="M432.88 839.33s-90.176-1.643-101.657 54.105h42.629s1.642 22.956 8.2 32.791l59.026-26.23v26.23s54.096-8.202 55.738-50.831c1.641-42.625-63.936-36.065-63.936-36.065Z" style="fill:#efcc00;stroke:#000;stroke-width:.25" transform="matrix(.34689 0 0 .34689 904.748 -41.317)"/><path d="m349.708 874.399 34.674.093 3.768 31.152 58.296-22.996 6.802 22.996s39.878-40.344-22.953-59.028c-48.789-14.51-80.587 21.226-80.587 27.783" style="opacity:.81000001;fill:#fffffe" transform="matrix(.34689 0 0 .34689 904.748 -41.317)"/><path d="M1509.469 539.219c-5.884.07-53.41 2.202-67.625 51.968-6.487 22.713-7.3 28.093-7.438 30.563-.05.099-.054 4.012-.107 4.118-22.215 16.614-30.346 39.775-20.563 70.28 0 0 9.933-29.148 17.514-29.148 0 0-9.116 86.482 83.406 84.969 89.751 0 85.188-84.969 85.188-84.969 9 0 19.843 30.344 19.843 30.344 17.154-46.269-16.238-63.213-23.437-75.344-.069-.117-.091-.173-.156-.281.28-1.247-1.22-7.978-8.875-30.532-18.005-53.083-77.157-51.968-77.157-51.968s-.201-.005-.593 0z" style="fill:#111a1b" transform="translate(-414.541 -487.125)"/><path d="M763.642 612.945s75.42-8.84 102.655 84.476c0 0 42.013-76.779-82.083-181.573 0 0-11.373-251.932-258.165-238.991v493.492s214.23 49.192 237.593-157.404z" style="fill:#323f49" transform="matrix(.34689 0 0 .34689 904.748 -41.317)"/><path d="M360.723 612.945s-63.484-8.84-86.438 84.476c0 0-39.352-93.315 68.865-171.511 0 0 9.84-261.994 217.61-249.054v493.492c0 .001-180.36 49.193-200.037-157.403z" style="fill:#323f49" transform="matrix(.34689 0 0 .34689 904.748 -41.317)"/><path d="M440.296 545.575s200.042-6.555 237.75 0c0 0 59.03 37.077 59.03 151.846 0 54.751-37.484 156.406-187.126 156.406 0 0-160.482-7.838-160.482-156.406 0 0-14.757-89.537 50.828-151.846z" style="fill:#e6ebef" transform="matrix(.34689 0 0 .34689 904.748 -41.317)"/><path d="M440.296 545.575s184.438-8.606 222.584-2.917c0 0 72.759 25.488 72.759 125.092 0 31.86-31.716 127.052-174.366 127.052 0 0-173.086 1.896-173.086-127.052.001 0-3.494-75.994 52.109-122.175z" style="fill:#fff" transform="matrix(.34689 0 0 .34689 904.748 -41.317)"/><path d="M500.07 538.518s63.123-27.795 126.252 0c0 0-49.445 65.588-63.129 65.588-8.016-.001-43.452-26.24-63.123-65.588z" style="fill:#a9aeb7" transform="matrix(.34689 0 0 .34689 904.748 -41.317)"/><path d="M486.821 538.518s63.128-27.795 126.255 0c0 0-49.448 65.588-63.126 65.588-8.016-.001-43.449-26.24-63.129-65.588z" style="fill:#020202" transform="matrix(.34689 0 0 .34689 904.748 -41.317)"/><path d="M559.095 427.717s-86.207-40.311-128.121-43.207c-41.914-2.896-92.885 100.057-26.388 147.948 55.681 40.112 106.678 11.248 154.228-4.915 0 0 57.389 29.166 114.721 21.313 79.195-10.851 104.122-168.884 12.193-162.323.001 0-49.573-16.206-126.633 41.184z" style="fill:#10191a" transform="matrix(.34689 0 0 .34689 904.748 -41.317)"/><path d="M546.082 454.001s-107.577-42.632-124.23-45.911c0 0-37.866 72.143 31.77 101.654-.001 0 66.097 22.956 92.46-55.743zM699.466 406.547s-108.63 39.906-123.232 48.563c0 0 19.857 79.009 91.436 54.621-.001 0 64.564-26.922 31.796-103.184z" style="fill:#fff" transform="matrix(.34689 0 0 .34689 904.748 -41.317)"/><path d="M430.974 383.072s79.833 20.891 124.61 44.266c0 0 98.999-42.242 130.145-42.242 0 0-.609-100.404-136.703-100.404 0-.001-118.052 8.198-118.052 98.38z" style="fill:#5a6464" transform="matrix(.34689 0 0 .34689 904.748 -41.317)"/><path d="M486.821 526.171s63.128-27.8 126.255 0c0 0-49.448 65.585-63.126 65.585-8.016 0-43.449-26.236-63.129-65.585z" style="fill:#efcc00;stroke:#000;stroke-width:.25" transform="matrix(.34689 0 0 .34689 904.748 -41.317)"/><path d="M520.769 454.961c0 15.252-12.374 27.617-27.643 27.617-15.245 0-27.618-12.365-27.618-27.617 0-15.245 12.374-27.623 27.618-27.623 15.27 0 27.643 12.378 27.643 27.623zM659.627 454.961c0 15.252-12.373 27.617-27.618 27.617-15.27 0-27.644-12.365-27.644-27.617 0-15.245 12.374-27.623 27.644-27.623 15.245 0 27.618 12.378 27.618 27.623z" style="fill:#10191a" transform="matrix(.34689 0 0 .34689 904.748 -41.317)"/><path d="M520.769 446.131c0 5.258-4.252 9.51-9.477 9.51a9.503 9.503 0 0 1-9.507-9.51c0-5.25 4.253-9.502 9.507-9.502 5.225 0 9.477 4.252 9.477 9.502zM650.098 436.642c0 5.242-4.278 9.489-9.507 9.489-5.249 0-9.504-4.247-9.504-9.489 0-5.266 4.255-9.517 9.504-9.517 5.229 0 9.507 4.251 9.507 9.517zM553.332 532.239s-29.515-4.915-44.271 8.201l31.155 33.791 13.116-41.992z" style="fill:#fff" transform="matrix(.34689 0 0 .34689 904.748 -41.317)"/><path d="M343.15 525.91s21.007-13.101 29.364 0c8.351 13.11-96.59 83.973-98.229 171.511 0 0-1.921 9.315-4.397-15.498-2.473-24.814-16.917-90.412 73.262-156.013zM784.214 515.848s-15.447-3.038-24.544 10.062c-9.12 13.11 105.25 83.973 107.037 171.511 0 0 2.078 9.315 4.792-15.498 2.689-24.814 10.989-100.475-87.285-166.075z" style="fill:#5a6464" transform="matrix(.34689 0 0 .34689 904.748 -41.317)"/><g aria-label="17" style="font-style:normal;font-weight:400;font-size:5px;line-height:125%;font-family:sans-serif;letter-spacing:0;word-spacing:0;fill:#000;fill-opacity:1;stroke:none;stroke-width:1px;stroke-linecap:butt;stroke-linejoin:miter;stroke-opacity:1"><path d="M57.55 125.486v-87H33.177v-18.75q8.25 0 16.875-5.25 9-5.625 12.375-18h7.5q5.625 0 9.375 3.75 4.125 3.75 4.125 9.375v115.875ZM139.5 125.486h-27.75q.75-26.25 13.124-54 10.875-25.875 33-52.5h-65.25v-22.5h85.5q10.125 0 11.625 7.5 1.5 7.125-3 12.375-10.875 12.375-19.5 25.125Q159 53.86 153.374 67.36 141 95.486 139.5 125.486z" style="font-style:normal;font-variant:normal;font-weight:400;font-stretch:normal;font-size:192px;font-family:Harabara;-inkscape-font-specification:Harabara;letter-spacing:6.9486227px;fill:#fff" transform="matrix(1.29887 0 0 1.29158 -9.915 84.377)"/></g><g aria-label="25 kwietnia 2020 | Wrocław, Polska" style="font-style:normal;font-weight:400;font-size:5px;line-height:125%;font-family:sans-serif;letter-spacing:0;word-spacing:0;display:inline;fill:#000;fill-opacity:1;stroke:none;stroke-width:1px;stroke-linecap:butt;stroke-linejoin:miter;stroke-opacity:1"><g aria-label="22-23 kwietnia 2023 | Wrocław, Polska" style="font-size:40px;white-space:pre;shape-inside:url(#a);shape-padding:.0876788;fill:#ff2a2a" transform="translate(-.698 -23.509)"><path d="M282.49 339.383h-18.88v-2.92l7.48-7.56q2.16-2.16 3.64-3.84 1.48-1.68 2.24-3.28.76-1.64.76-3.56 0-2.36-1.4-3.56-1.4-1.24-3.64-1.24-2.08 0-3.68.72-1.56.72-3.2 2l-1.88-2.36q1.68-1.4 3.84-2.36 2.2-1 4.92-1 4 0 6.32 2.04 2.32 2 2.32 5.56 0 2.24-.92 4.2t-2.56 3.88q-1.64 1.88-3.84 4.04l-5.96 5.88v.16h14.44zM305.37 339.383h-18.88v-2.92l7.48-7.56q2.16-2.16 3.64-3.84 1.48-1.68 2.24-3.28.76-1.64.76-3.56 0-2.36-1.4-3.56-1.4-1.24-3.64-1.24-2.08 0-3.68.72-1.56.72-3.2 2l-1.88-2.36q1.68-1.4 3.84-2.36 2.2-1 4.92-1 4 0 6.32 2.04 2.32 2 2.32 5.56 0 2.24-.92 4.2t-2.56 3.88q-1.64 1.88-3.84 4.04l-5.96 5.88v.16h14.44zM309.05 330.223v-3.12h9.68v3.12zM341.13 339.383h-18.88v-2.92l7.48-7.56q2.16-2.16 3.64-3.84 1.48-1.68 2.24-3.28.76-1.64.76-3.56 0-2.36-1.4-3.56-1.4-1.24-3.64-1.24-2.08 0-3.68.72-1.56.72-3.2 2l-1.88-2.36q1.68-1.4 3.84-2.36 2.2-1 4.92-1 4 0 6.32 2.04 2.32 2 2.32 5.56 0 2.24-.92 4.2t-2.56 3.88q-1.64 1.88-3.84 4.04l-5.96 5.88v.16h14.44zM362.93 317.503q0 2.88-1.6 4.6-1.6 1.68-4.32 2.24v.16q3.44.4 5.12 2.16 1.68 1.76 1.68 4.6 0 2.48-1.16 4.44-1.16 1.92-3.6 3-2.4 1.08-6.2 1.08-2.24 0-4.16-.36-1.92-.32-3.68-1.2v-3.28q1.8.88 3.88 1.4 2.08.48 4 .48 3.84 0 5.52-1.48 1.72-1.52 1.72-4.16 0-2.68-2.12-3.84-2.08-1.2-5.88-1.2h-2.76v-3h2.8q3.52 0 5.32-1.48 1.84-1.48 1.84-3.92 0-2.08-1.4-3.2-1.4-1.16-3.8-1.16-2.32 0-3.96.68-1.64.68-3.24 1.72l-1.76-2.4q1.52-1.2 3.76-2.08 2.28-.88 5.16-.88 4.48 0 6.64 2 2.2 2 2.2 5.08zM383.37 308.983v15.88q0 .64-.08 1.68-.04 1.04-.08 1.8h.16q.24-.32.72-.92l.96-1.2q.52-.64.88-1.04l6.84-7.24h4.12l-8.68 9.16 9.28 12.28h-4.24l-7.44-10-2.44 2.12v7.88h-3.48v-30.4zM418.77 339.343l-3.68-12.08q-.52-1.64-.92-3.2-.36-1.6-.56-2.48h-.16q-.16.88-.52 2.48-.36 1.56-.92 3.24l-3.84 12.04h-4l-5.88-21.44h3.64l2.96 11.44q.44 1.72.84 3.48.4 1.76.56 2.92h.16q.16-.68.36-1.68.24-1 .52-2.08.28-1.12.56-2l3.8-12.08h3.84l3.68 12.08q.44 1.36.84 2.96.44 1.6.6 2.76h.16q.12-1 .52-2.76.44-1.76.92-3.6l3-11.44h3.6l-5.96 21.44zM434.49 309.903q.8 0 1.4.56.64.52.64 1.68 0 1.12-.64 1.68-.6.56-1.4.56-.88 0-1.48-.56t-.6-1.68q0-1.16.6-1.68.6-.56 1.48-.56zm1.72 8.04v21.44h-3.52v-21.44zM451.29 317.543q2.76 0 4.72 1.2 2 1.2 3.04 3.4 1.08 2.16 1.08 5.08v2.12h-14.68q.08 3.64 1.84 5.56 1.8 1.88 5 1.88 2.04 0 3.6-.36 1.6-.4 3.28-1.12v3.08q-1.64.72-3.24 1.04-1.6.36-3.8.36-3.04 0-5.4-1.24-2.32-1.24-3.64-3.68-1.28-2.48-1.28-6.04 0-3.52 1.16-6.04 1.2-2.52 3.32-3.88 2.16-1.36 5-1.36zm-.04 2.88q-2.52 0-4 1.64-1.44 1.6-1.72 4.48h10.92q-.04-2.72-1.28-4.4-1.24-1.72-3.92-1.72zM472.73 336.903q.8 0 1.64-.12.84-.16 1.36-.32v2.68q-.56.28-1.6.44-1.04.2-2 .2-1.68 0-3.12-.56-1.4-.6-2.28-2.04-.88-1.44-.88-4.04v-12.48h-3.04v-1.68l3.08-1.4 1.4-4.56h2.08v4.92h6.2v2.72h-6.2v12.4q0 1.96.92 2.92.96.92 2.44.92zM490.33 317.543q3.84 0 5.8 1.88 1.96 1.84 1.96 6v13.96h-3.48v-13.72q0-5.16-4.8-5.16-3.56 0-4.92 2-1.36 2-1.36 5.76v11.12h-3.52v-21.44h2.84l.52 2.92h.2q1.04-1.68 2.88-2.48 1.84-.84 3.88-.84zM506.53 309.903q.8 0 1.4.56.64.52.64 1.68 0 1.12-.64 1.68-.6.56-1.4.56-.88 0-1.48-.56t-.6-1.68q0-1.16.6-1.68.6-.56 1.48-.56zm1.72 8.04v21.44h-3.52v-21.44zM523.17 317.583q3.92 0 5.8 1.72t1.88 5.48v14.6h-2.56l-.68-3.04h-.16q-1.4 1.76-2.96 2.6-1.52.84-4.24.84-2.92 0-4.84-1.52-1.92-1.56-1.92-4.84 0-3.2 2.52-4.92 2.52-1.76 7.76-1.92l3.64-.12v-1.28q0-2.68-1.16-3.72t-3.28-1.04q-1.68 0-3.2.52-1.52.48-2.84 1.12l-1.08-2.64q1.4-.76 3.32-1.28 1.92-.56 4-.56zm4.2 11.32-3.16.12q-4 .16-5.56 1.28-1.52 1.12-1.52 3.16 0 1.8 1.08 2.64 1.12.84 2.84.84 2.72 0 4.52-1.48 1.8-1.52 1.8-4.64zM565.29 339.383h-18.88v-2.92l7.48-7.56q2.16-2.16 3.64-3.84 1.48-1.68 2.24-3.28.76-1.64.76-3.56 0-2.36-1.4-3.56-1.4-1.24-3.64-1.24-2.08 0-3.68.72-1.56.72-3.2 2l-1.88-2.36q1.68-1.4 3.84-2.36 2.2-1 4.92-1 4 0 6.32 2.04 2.32 2 2.32 5.56 0 2.24-.92 4.2t-2.56 3.88q-1.64 1.88-3.84 4.04l-5.96 5.88v.16h14.44zM588.29 325.063q0 4.6-.96 7.92-.96 3.28-3.04 5.04-2.08 1.76-5.52 1.76-4.84 0-7.16-3.88-2.28-3.92-2.28-10.84 0-4.64.92-7.92.96-3.28 3.04-5 2.08-1.76 5.48-1.76 4.8 0 7.16 3.88 2.36 3.84 2.36 10.8zm-15.44 0q0 5.88 1.32 8.8 1.36 2.92 4.6 2.92 3.2 0 4.56-2.88 1.4-2.92 1.4-8.84 0-5.84-1.4-8.76-1.36-2.92-4.56-2.92-3.24 0-4.6 2.92-1.32 2.92-1.32 8.76zM611.05 339.383h-18.88v-2.92l7.48-7.56q2.16-2.16 3.64-3.84 1.48-1.68 2.24-3.28.76-1.64.76-3.56 0-2.36-1.4-3.56-1.4-1.24-3.64-1.24-2.08 0-3.68.72-1.56.72-3.2 2l-1.88-2.36q1.68-1.4 3.84-2.36 2.2-1 4.92-1 4 0 6.32 2.04 2.32 2 2.32 5.56 0 2.24-.92 4.2t-2.56 3.88q-1.64 1.88-3.84 4.04l-5.96 5.88v.16h14.44zM632.85 317.503q0 2.88-1.6 4.6-1.6 1.68-4.32 2.24v.16q3.44.4 5.12 2.16 1.68 1.76 1.68 4.6 0 2.48-1.16 4.44-1.16 1.92-3.6 3-2.4 1.08-6.2 1.08-2.24 0-4.16-.36-1.92-.32-3.68-1.2v-3.28q1.8.88 3.88 1.4 2.08.48 4 .48 3.84 0 5.52-1.48 1.72-1.52 1.72-4.16 0-2.68-2.12-3.84-2.08-1.2-5.88-1.2h-2.76v-3h2.8q3.52 0 5.32-1.48 1.84-1.48 1.84-3.92 0-2.08-1.4-3.2-1.4-1.16-3.8-1.16-2.32 0-3.96.68-1.64.68-3.24 1.72l-1.76-2.4q1.52-1.2 3.76-2.08 2.28-.88 5.16-.88 4.48 0 6.64 2 2.2 2 2.2 5.08zM655.97 308.983h2.92v40.04h-2.92zM715.53 310.823l-7.6 28.56h-3.64l-5.56-18.72-.64-2.32q-.32-1.16-.52-2.04-.2-.92-.28-1.28-.04.52-.44 2.24-.36 1.68-.92 3.52l-5.4 18.6h-3.64l-7.56-28.56h3.76l4.44 17.44q.48 1.84.8 3.56.36 1.72.56 3.24.2-1.56.6-3.4.4-1.84.92-3.6l5.04-17.24h3.72l5.24 17.36q.56 1.84.96 3.68.4 1.8.6 3.2.2-1.48.56-3.2.36-1.76.84-3.64l4.4-17.4zM729.05 317.543q.6 0 1.28.08.72.04 1.24.16l-.44 3.24q-.52-.12-1.16-.2-.6-.08-1.16-.08-1.64 0-3.08.92-1.44.88-2.32 2.52-.84 1.6-.84 3.76v11.44h-3.52v-21.44h2.88l.4 3.92h.16q1.04-1.76 2.68-3.04 1.64-1.28 3.88-1.28zM753.41 328.623q0 5.32-2.72 8.24-2.68 2.92-7.28 2.92-2.84 0-5.08-1.28-2.2-1.32-3.48-3.8-1.28-2.52-1.28-6.08 0-5.32 2.68-8.2 2.68-2.88 7.28-2.88 2.92 0 5.12 1.32 2.24 1.28 3.48 3.76 1.28 2.44 1.28 6zm-16.2 0q0 3.8 1.48 6.04 1.52 2.2 4.8 2.2 3.24 0 4.76-2.2 1.52-2.24 1.52-6.04t-1.52-5.96q-1.52-2.16-4.8-2.16t-4.76 2.16q-1.48 2.16-1.48 5.96zM767.57 339.783q-2.84 0-5.08-1.16-2.2-1.16-3.48-3.6-1.24-2.44-1.24-6.24 0-3.96 1.32-6.44 1.32-2.48 3.56-3.64 2.28-1.16 5.16-1.16 1.64 0 3.16.36 1.52.32 2.48.8l-1.08 2.92q-.96-.36-2.24-.68-1.28-.32-2.4-.32-6.32 0-6.32 8.12 0 3.88 1.52 5.96 1.56 2.04 4.6 2.04 1.76 0 3.08-.36 1.36-.36 2.48-.88v3.12q-1.08.56-2.4.84-1.28.32-3.12.32zM777.89 339.383v-11.4l-2.04 1.28-1.44-2.36 3.48-2.24v-15.68h3.52v13.4l2.56-1.76 1.48 2.36-4.04 2.72v13.68zM796.61 317.583q3.92 0 5.8 1.72t1.88 5.48v14.6h-2.56l-.68-3.04h-.16q-1.4 1.76-2.96 2.6-1.52.84-4.24.84-2.92 0-4.84-1.52-1.92-1.56-1.92-4.84 0-3.2 2.52-4.92 2.52-1.76 7.76-1.92l3.64-.12v-1.28q0-2.68-1.16-3.72t-3.28-1.04q-1.68 0-3.2.52-1.52.48-2.84 1.12l-1.08-2.64q1.4-.76 3.32-1.28 1.92-.56 4-.56zm4.2 11.32-3.16.12q-4 .16-5.56 1.28-1.52 1.12-1.52 3.16 0 1.8 1.08 2.64 1.12.84 2.84.84 2.72 0 4.52-1.48 1.8-1.52 1.8-4.64zM828.45 339.343l-3.68-12.08q-.52-1.64-.92-3.2-.36-1.6-.56-2.48h-.16q-.16.88-.52 2.48-.36 1.56-.92 3.24l-3.84 12.04h-4l-5.88-21.44h3.64l2.96 11.44q.44 1.72.84 3.48.4 1.76.56 2.92h.16q.16-.68.36-1.68.24-1 .52-2.08.28-1.12.56-2l3.8-12.08h3.84l3.68 12.08q.44 1.36.84 2.96.44 1.6.6 2.76h.16q.12-1 .52-2.76.44-1.76.92-3.6l3-11.44h3.6l-5.96 21.44zM844.77 334.743l.28.44q-.52 2.12-1.52 4.64-.96 2.56-1.92 4.72h-2.6q.56-2.28 1.12-5 .6-2.72.88-4.8zM869.93 310.823q5.6 0 8.16 2.2 2.56 2.2 2.56 6.2 0 2.36-1.08 4.44-1.04 2.04-3.56 3.32-2.48 1.28-6.76 1.28h-3.28v11.12h-3.6v-28.56zm-.32 3.08h-3.64v11.28h2.88q4.08 0 6.08-1.32t2-4.48q0-2.76-1.76-4.12-1.76-1.36-5.56-1.36zM904.73 328.623q0 5.32-2.72 8.24-2.68 2.92-7.28 2.92-2.84 0-5.08-1.28-2.2-1.32-3.48-3.8-1.28-2.52-1.28-6.08 0-5.32 2.68-8.2 2.68-2.88 7.28-2.88 2.92 0 5.12 1.32 2.24 1.28 3.48 3.76 1.28 2.44 1.28 6zm-16.2 0q0 3.8 1.48 6.04 1.52 2.2 4.8 2.2 3.24 0 4.76-2.2 1.52-2.24 1.52-6.04t-1.52-5.96q-1.52-2.16-4.8-2.16t-4.76 2.16q-1.48 2.16-1.48 5.96zM913.81 339.383h-3.52v-30.4h3.52zM934.57 333.463q0 3.12-2.32 4.72-2.32 1.6-6.24 1.6-2.24 0-3.88-.36-1.6-.36-2.84-1v-3.2q1.28.64 3.08 1.2 1.84.52 3.72.52 2.68 0 3.88-.84 1.2-.88 1.2-2.32 0-.8-.44-1.44-.44-.64-1.6-1.28-1.12-.64-3.24-1.44-2.08-.8-3.56-1.6t-2.28-1.92q-.8-1.12-.8-2.88 0-2.72 2.2-4.2 2.24-1.48 5.84-1.48 1.96 0 3.64.4 1.72.36 3.2 1.04l-1.2 2.8q-1.36-.56-2.84-.96-1.48-.4-3.04-.4-2.16 0-3.32.72-1.12.68-1.12 1.88 0 .88.52 1.52.52.6 1.72 1.2 1.24.56 3.28 1.36 2.04.76 3.48 1.56t2.2 1.96q.76 1.12.76 2.84zM943.25 308.983v15.88q0 .64-.08 1.68-.04 1.04-.08 1.8h.16q.24-.32.72-.92l.96-1.2q.52-.64.88-1.04l6.84-7.24h4.12l-8.68 9.16 9.28 12.28h-4.24l-7.44-10-2.44 2.12v7.88h-3.48v-30.4zM969.25 317.583q3.92 0 5.8 1.72t1.88 5.48v14.6h-2.56l-.68-3.04h-.16q-1.4 1.76-2.96 2.6-1.52.84-4.24.84-2.92 0-4.84-1.52-1.92-1.56-1.92-4.84 0-3.2 2.52-4.92 2.52-1.76 7.76-1.92l3.64-.12v-1.28q0-2.68-1.16-3.72t-3.28-1.04q-1.68 0-3.2.52-1.52.48-2.84 1.12l-1.08-2.64q1.4-.76 3.32-1.28 1.92-.56 4-.56zm4.2 11.32-3.16.12q-4 .16-5.56 1.28-1.52 1.12-1.52 3.16 0 1.8 1.08 2.64 1.12.84 2.84.84 2.72 0 4.52-1.48 1.8-1.52 1.8-4.64z" style="fill:#000"/></g></g></svg>