<svg width="270" height="270" viewBox="0 0 270 270" fill="none" xmlns="http://www.w3.org/2000/svg">
<g clip-path="url(#clip0_168_277)">
<path d="M243.375 269.552C236.99 268.296 237.263 268.535 202.943 234.3C185.262 216.664 170.138 201.283 169.334 200.121C168.53 198.959 167.436 196.819 166.904 195.367C166.372 193.914 165.869 192.636 165.788 192.528C165.707 192.419 163.679 193.588 161.282 195.125C145.483 205.255 125.354 210.951 105.348 210.951C77.026 210.951 51.28 200.401 31.0737 180.515C14.9754 164.673 4.58377 144.198 0.921473 121.106C-0.294966 113.436 -0.309648 97.357 0.892948 90.0938C3.99815 71.3428 10.4615 55.8607 21.2295 41.3803C25.0277 36.2727 36.2985 25.0062 41.4081 21.2095C56.0142 10.3565 72.7968 3.4388 91.3432 0.626635C97.594 -0.32117 114.487 -0.165326 121.164 0.901751C152.246 5.86891 177.835 22.5293 194.83 48.8628C211.891 75.2989 215.809 110.245 205.123 140.671C202.936 146.898 198.54 156.021 195.278 161.105C192.319 165.716 192.184 166.047 193.269 166.047C193.666 166.047 195.628 166.869 197.629 167.874C200.949 169.541 204.121 172.558 233.875 202.344C262.271 230.772 266.658 235.374 267.848 237.981C275.557 254.873 261.426 273.103 243.375 269.552ZM118.831 183.187C144.475 178.795 166.335 162.039 177.166 138.473C185.378 120.605 186.652 99.0557 180.562 80.9946C173.741 60.7647 160.513 45.2117 141.748 35.3592C117.567 22.6632 86.7843 23.8923 63.5686 38.4808C54.1568 44.395 44.4572 54.0919 38.5103 63.532C27.5093 80.9948 23.8266 103.929 28.7924 124.049C38.776 164.501 77.901 190.199 118.831 183.187Z" fill="white"/>
</g>
<defs>
<clipPath id="clip0_168_277">
<rect width="270" height="270" fill="white"/>
</clipPath>
</defs>
</svg>
